<?xml version="1.0" encoding="utf-8"?>
<!-- Generator: Adobe Illustrator 14.0.0, SVG Export Plug-In . SVG Version: 6.00 Build 43363)  -->
<!DOCTYPE svg PUBLIC "-//W3C//DTD SVG 1.1//EN" "http://www.w3.org/Graphics/SVG/1.1/DTD/svg11.dtd">
<svg version="1.1" id="Layer_1" xmlns="http://www.w3.org/2000/svg" xmlns:xlink="http://www.w3.org/1999/xlink" x="0px" y="0px"
	 width="225px" height="354px" viewBox="0 0 225 354" enable-background="new 0 0 225 354" xml:space="preserve">
<g>
	<g>
		<g>
			<path d="M76.719,80.24c-4.641-12.384-9.635-29.85-9.639-42.584l0,0c0-1.4,0.06-2.744,0.19-4.017l0,0
				c1.277-12.707,3.452-17.935,8.655-20.613l0,0c1.84-0.947,4.053-1.575,6.42-1.575l0,0c4.266-0.007,9.017,2.065,12.84,7.858l0,0
				c2.836,4.291,3.714,8.935,3.713,13.38l0,0c0,4.919-1.067,9.613-1.757,13.4l0,0c-1.313,7.146-1.166,25.478-5.906,39.421l0,0
				L91.2,85.608l-0.071,0.072c-0.037,0.021-2.674,2.663-6.105,2.682l0,0c-0.008,0-0.017,0-0.025,0l0,0
				C82.187,88.363,79.027,86.448,76.719,80.24L76.719,80.24z M76.318,13.788c-4.792,2.462-6.903,7.229-8.197,19.938l0,0
				c-0.127,1.238-0.187,2.552-0.184,3.93l0,0c-0.006,12.523,4.96,29.966,9.584,42.283l0,0c2.296,6.07,5.114,7.557,7.502,7.566l0,0
				c1.484,0.001,2.868-0.601,3.878-1.217l0,0c0.811-0.494,1.366-0.979,1.553-1.152l0,0c4.65-13.744,4.516-31.9,5.841-39.201l0,0
				c0.698-3.813,1.746-8.45,1.744-13.246l0,0c0-4.336-0.85-8.79-3.572-12.907l0,0c-3.709-5.594-8.138-7.467-12.124-7.474l0,0
				C80.13,12.309,78.047,12.899,76.318,13.788L76.318,13.788z"/>
		</g>
		<g>
			
				<linearGradient id="SVGID_1_" gradientUnits="userSpaceOnUse" x1="490.6475" y1="487.666" x2="326.704" y2="329.3477" gradientTransform="matrix(0.931 -0.365 0.365 0.931 -407.7246 -54.0877)">
				<stop  offset="0" style="stop-color:#333333"/>
				<stop  offset="1" style="stop-color:#FFFFFF"/>
			</linearGradient>
			<path fill="url(#SVGID_1_)" d="M78.079,65.39c-41.121,16.121-59.812,44.368-51.434,65.742l56.737,144.727
				c8.378,21.375,42.901,28.76,82.409,13.271c39.507-15.487,59.811-44.367,51.432-65.741L160.486,78.663
				C152.107,57.29,119.199,49.271,78.079,65.39z M91.628,99.956c-5.579,2.187-11.876-0.563-14.064-6.143
				c-2.188-5.58,0.562-11.877,6.142-14.064s11.877,0.562,14.063,6.143C99.957,91.471,97.208,97.769,91.628,99.956z"/>
			
				<linearGradient id="SVGID_2_" gradientUnits="userSpaceOnUse" x1="408.6758" y1="527.5928" x2="408.6758" y2="289.8408" gradientTransform="matrix(0.931 -0.365 0.365 0.931 -407.7246 -54.0877)">
				<stop  offset="0" style="stop-color:#666666"/>
				<stop  offset="1" style="stop-color:#E6E6E6"/>
			</linearGradient>
			<path fill="url(#SVGID_2_)" d="M78.546,66.587c-40.679,15.948-59.172,43.893-50.882,65.039l56.129,143.177
				c8.29,21.146,42.443,28.455,81.528,13.132c39.084-15.323,59.173-43.894,50.883-65.04L160.075,79.718
				C151.785,58.572,119.228,50.639,78.546,66.587z M91.628,99.956c-5.579,2.187-11.876-0.563-14.064-6.143
				c-2.188-5.58,0.562-11.877,6.142-14.064s11.877,0.562,14.063,6.143C99.957,91.471,97.208,97.769,91.628,99.956z"/>
			
				<linearGradient id="SVGID_3_" gradientUnits="userSpaceOnUse" x1="332.8462" y1="332.6748" x2="484.5047" y2="484.3333" gradientTransform="matrix(0.931 -0.365 0.365 0.931 -407.7246 -54.0877)">
				<stop  offset="0" style="stop-color:#333333"/>
				<stop  offset="1" style="stop-color:#FFFFFF"/>
			</linearGradient>
			<path fill="url(#SVGID_3_)" d="M80.525,71.634c-39.106,15.331-54.515,40.381-46.546,60.709l53.959,137.641
				c7.969,20.329,37.831,27.633,75.404,12.905c37.573-14.73,54.516-40.383,46.545-60.711L155.93,84.538
				C147.96,64.208,119.633,56.303,80.525,71.634z M91.628,99.956c-5.579,2.187-11.876-0.563-14.064-6.143
				c-2.188-5.58,0.562-11.877,6.142-14.064s11.877,0.562,14.063,6.143C99.957,91.471,97.208,97.769,91.628,99.956z"/>
			
				<linearGradient id="SVGID_4_" gradientUnits="userSpaceOnUse" x1="408.6758" y1="521.4287" x2="408.6758" y2="296.0039" gradientTransform="matrix(0.931 -0.365 0.365 0.931 -407.7246 -54.0877)">
				<stop  offset="0" style="stop-color:#999999"/>
				<stop  offset="1" style="stop-color:#FFFFFF"/>
			</linearGradient>
			<path fill="url(#SVGID_4_)" d="M80.796,72.325c-38.851,15.23-54.158,40.117-46.242,60.313l53.606,136.74
				c7.916,20.196,37.583,27.451,74.911,12.819c37.327-14.634,54.159-40.119,46.242-60.314L155.707,85.143
				C147.791,64.948,119.648,57.094,80.796,72.325z M91.628,99.956c-5.579,2.187-11.876-0.563-14.064-6.143
				c-2.188-5.58,0.562-11.877,6.142-14.064s11.877,0.562,14.063,6.143C99.957,91.471,97.208,97.769,91.628,99.956z"/>
			
				<linearGradient id="SVGID_5_" gradientUnits="userSpaceOnUse" x1="408.6758" y1="422.8652" x2="408.6758" y2="296.0039" gradientTransform="matrix(0.931 -0.365 0.365 0.931 -407.7246 -54.0877)">
				<stop  offset="0" style="stop-color:#D1D1D1"/>
				<stop  offset="1" style="stop-color:#FFFFFF"/>
			</linearGradient>
			<path fill="url(#SVGID_5_)" d="M80.796,72.325c-38.851,15.23-54.158,40.117-46.242,60.313l29.841,76.118
				c7.917,20.198,111.626-71.794,121.152-47.493l-29.841-76.121C147.791,64.948,119.648,57.094,80.796,72.325z M91.628,99.956
				c-5.579,2.187-11.876-0.563-14.064-6.143c-2.188-5.58,0.562-11.877,6.142-14.064s11.877,0.562,14.063,6.143
				C99.957,91.471,97.208,97.769,91.628,99.956z"/>
			
				<linearGradient id="SVGID_6_" gradientUnits="userSpaceOnUse" x1="418.6514" y1="323.8115" x2="398.7018" y2="305.8489" gradientTransform="matrix(0.931 -0.365 0.365 0.931 -407.7246 -54.0877)">
				<stop  offset="0" style="stop-color:#666666"/>
				<stop  offset="1" style="stop-color:#E6E6E6"/>
			</linearGradient>
			<path fill="url(#SVGID_6_)" d="M82.769,77.356c-6.901,2.706-10.304,10.493-7.598,17.394c2.705,6.902,10.494,10.304,17.396,7.599
				c6.9-2.706,10.302-10.494,7.597-17.394C97.457,78.052,89.669,74.651,82.769,77.356z M91.628,99.956
				c-5.579,2.187-11.876-0.563-14.064-6.143c-2.188-5.58,0.562-11.877,6.142-14.064s11.877,0.562,14.063,6.143
				C99.957,91.471,97.208,97.769,91.628,99.956z"/>
			<path fill="#E6E6E6" d="M82.977,77.888c-6.607,2.59-9.864,10.047-7.274,16.655c2.591,6.606,10.047,9.864,16.654,7.274
				c6.607-2.591,9.864-10.048,7.274-16.655C97.04,78.554,89.584,75.297,82.977,77.888z M91.628,99.956
				c-5.579,2.187-11.876-0.563-14.064-6.143c-2.188-5.58,0.562-11.877,6.142-14.064s11.877,0.562,14.063,6.143
				C99.957,91.471,97.208,97.769,91.628,99.956z"/>
			
				<linearGradient id="SVGID_7_" gradientUnits="userSpaceOnUse" x1="400.6006" y1="306.7529" x2="416.7549" y2="322.9073" gradientTransform="matrix(0.931 -0.365 0.365 0.931 -407.7246 -54.0877)">
				<stop  offset="0" style="stop-color:#666666"/>
				<stop  offset="1" style="stop-color:#E6E6E6"/>
			</linearGradient>
			<path fill="url(#SVGID_7_)" d="M83.499,79.217c-5.875,2.303-8.769,8.93-6.466,14.804c2.301,5.873,8.93,8.769,14.804,6.466
				c5.873-2.303,8.768-8.93,6.465-14.804C96,79.81,89.372,76.914,83.499,79.217z M91.628,99.956
				c-5.579,2.187-11.876-0.563-14.064-6.143c-2.188-5.58,0.562-11.877,6.142-14.064s11.877,0.562,14.063,6.143
				C99.957,91.471,97.208,97.769,91.628,99.956z"/>
		</g>
		<g>
			<linearGradient id="SVGID_8_" gradientUnits="userSpaceOnUse" x1="161.9268" y1="263.9209" x2="-2.0167" y2="105.6026">
				<stop  offset="0" style="stop-color:#333333"/>
				<stop  offset="1" style="stop-color:#FFFFFF"/>
			</linearGradient>
			<path fill="url(#SVGID_8_)" d="M79.952,64.812c-44.166,0-71.878,19.477-71.878,42.434v155.45
				c0,22.959,29.444,42.435,71.878,42.435c42.435,0,71.88-19.476,71.88-42.435v-155.45C151.833,84.289,124.121,64.812,79.952,64.812
				z M79.952,101.938c-5.993,0-10.851-4.859-10.851-10.853c0-5.993,4.858-10.853,10.851-10.853c5.994,0,10.852,4.86,10.852,10.853
				C90.804,97.08,85.946,101.938,79.952,101.938z"/>
			<linearGradient id="SVGID_9_" gradientUnits="userSpaceOnUse" x1="79.9526" y1="303.8467" x2="79.9526" y2="66.0981">
				<stop  offset="0" style="stop-color:#666666"/>
				<stop  offset="1" style="stop-color:#E6E6E6"/>
			</linearGradient>
			<path fill="url(#SVGID_9_)" d="M79.952,66.098c-43.694,0-71.11,19.269-71.11,41.98v153.787c0,22.712,29.129,41.981,71.11,41.981
				c41.982,0,71.111-19.269,71.111-41.981V108.078C151.063,85.366,123.647,66.098,79.952,66.098z M79.952,101.938
				c-5.993,0-10.851-4.859-10.851-10.853c0-5.993,4.858-10.853,10.851-10.853c5.994,0,10.852,4.86,10.852,10.853
				C90.804,97.08,85.946,101.938,79.952,101.938z"/>
			<linearGradient id="SVGID_10_" gradientUnits="userSpaceOnUse" x1="4.1235" y1="108.9312" x2="155.7821" y2="260.5897">
				<stop  offset="0" style="stop-color:#333333"/>
				<stop  offset="1" style="stop-color:#FFFFFF"/>
			</linearGradient>
			<path fill="url(#SVGID_10_)" d="M79.952,71.518c-42.004,0-65.493,17.699-65.493,39.533v147.84
				c0,21.835,25.135,39.535,65.493,39.535c40.358,0,65.494-17.699,65.494-39.535v-147.84
				C145.446,89.217,121.958,71.518,79.952,71.518z M79.952,101.938c-5.993,0-10.851-4.859-10.851-10.853
				c0-5.993,4.858-10.853,10.851-10.853c5.994,0,10.852,4.86,10.852,10.853C90.804,97.08,85.946,101.938,79.952,101.938z"/>
			<linearGradient id="SVGID_11_" gradientUnits="userSpaceOnUse" x1="79.9526" y1="297.6831" x2="79.9526" y2="72.2603">
				<stop  offset="0" style="stop-color:#999999"/>
				<stop  offset="1" style="stop-color:#FFFFFF"/>
			</linearGradient>
			<path fill="url(#SVGID_11_)" d="M79.952,72.26c-41.729,0-65.064,17.583-65.064,39.275v146.873
				c0,21.692,24.972,39.275,65.064,39.275c40.094,0,65.065-17.583,65.065-39.275V111.535C145.018,89.844,121.683,72.26,79.952,72.26
				z M79.952,101.938c-5.993,0-10.851-4.859-10.851-10.853c0-5.993,4.858-10.853,10.851-10.853c5.994,0,10.852,4.86,10.852,10.853
				C90.804,97.08,85.946,101.938,79.952,101.938z"/>
			<linearGradient id="SVGID_12_" gradientUnits="userSpaceOnUse" x1="79.9526" y1="199.1211" x2="79.9526" y2="72.2603">
				<stop  offset="0" style="stop-color:#D1D1D1"/>
				<stop  offset="1" style="stop-color:#FFFFFF"/>
			</linearGradient>
			<path fill="url(#SVGID_12_)" d="M79.952,72.26c-41.729,0-65.064,17.583-65.064,39.275v81.76c0,21.691,130.13-26.101,130.13,0
				v-81.76C145.018,89.844,121.683,72.26,79.952,72.26z M79.952,101.938c-5.993,0-10.851-4.859-10.851-10.853
				c0-5.993,4.858-10.853,10.851-10.853c5.994,0,10.852,4.86,10.852,10.853C90.804,97.08,85.946,101.938,79.952,101.938z"/>
			<linearGradient id="SVGID_13_" gradientUnits="userSpaceOnUse" x1="89.9268" y1="100.0669" x2="69.978" y2="82.1049">
				<stop  offset="0" style="stop-color:#666666"/>
				<stop  offset="1" style="stop-color:#E6E6E6"/>
			</linearGradient>
			<path fill="url(#SVGID_13_)" d="M79.952,77.664c-7.413,0-13.422,6.009-13.422,13.422c0,7.412,6.009,13.422,13.422,13.422
				s13.422-6.01,13.422-13.422C93.375,83.673,87.365,77.664,79.952,77.664z M79.952,101.938c-5.993,0-10.851-4.859-10.851-10.853
				c0-5.993,4.858-10.853,10.851-10.853c5.994,0,10.852,4.86,10.852,10.853C90.804,97.08,85.946,101.938,79.952,101.938z"/>
			<path fill="#E6E6E6" d="M79.952,78.235c-7.096,0-12.851,5.753-12.851,12.851c0,7.097,5.754,12.851,12.851,12.851
				c7.097,0,12.851-5.754,12.851-12.851C92.803,83.989,87.049,78.235,79.952,78.235z M79.952,101.938
				c-5.993,0-10.851-4.859-10.851-10.853c0-5.993,4.858-10.853,10.851-10.853c5.994,0,10.852,4.86,10.852,10.853
				C90.804,97.08,85.946,101.938,79.952,101.938z"/>
			<linearGradient id="SVGID_14_" gradientUnits="userSpaceOnUse" x1="71.875" y1="83.0088" x2="88.0294" y2="99.1631">
				<stop  offset="0" style="stop-color:#666666"/>
				<stop  offset="1" style="stop-color:#E6E6E6"/>
			</linearGradient>
			<path fill="url(#SVGID_14_)" d="M79.952,79.663c-6.308,0-11.422,5.115-11.422,11.423c0,6.309,5.114,11.423,11.422,11.423
				c6.309,0,11.423-5.114,11.423-11.423C91.375,84.778,86.261,79.663,79.952,79.663z M79.952,101.938
				c-5.993,0-10.851-4.859-10.851-10.853c0-5.993,4.858-10.853,10.851-10.853c5.994,0,10.852,4.86,10.852,10.853
				C90.804,97.08,85.946,101.938,79.952,101.938z"/>
		</g>
		<g>
			<linearGradient id="SVGID_15_" gradientUnits="userSpaceOnUse" x1="95.0132" y1="60.7046" x2="95.0132" y2="51.748">
				<stop  offset="0" style="stop-color:#000000"/>
				<stop  offset="0.0616" style="stop-color:#282828"/>
				<stop  offset="0.1417" style="stop-color:#545454"/>
				<stop  offset="0.2277" style="stop-color:#7B7B7B"/>
				<stop  offset="0.3185" style="stop-color:#9C9C9C"/>
				<stop  offset="0.4153" style="stop-color:#B7B7B7"/>
				<stop  offset="0.5204" style="stop-color:#CCCCCC"/>
				<stop  offset="0.6381" style="stop-color:#DBDBDB"/>
				<stop  offset="0.7783" style="stop-color:#E3E3E3"/>
				<stop  offset="1" style="stop-color:#E6E6E6"/>
			</linearGradient>
			<circle fill="url(#SVGID_15_)" cx="95.013" cy="56.227" r="4.478"/>
			<linearGradient id="SVGID_16_" gradientUnits="userSpaceOnUse" x1="96.9937" y1="60.7046" x2="96.9937" y2="51.748">
				<stop  offset="0" style="stop-color:#4D4D4D"/>
				<stop  offset="0.0176" style="stop-color:#545454"/>
				<stop  offset="0.1143" style="stop-color:#7B7B7B"/>
				<stop  offset="0.2184" style="stop-color:#9C9C9C"/>
				<stop  offset="0.3294" style="stop-color:#B7B7B7"/>
				<stop  offset="0.4499" style="stop-color:#CCCCCC"/>
				<stop  offset="0.5849" style="stop-color:#DADADA"/>
				<stop  offset="0.7457" style="stop-color:#E3E3E3"/>
				<stop  offset="1" style="stop-color:#E6E6E6"/>
			</linearGradient>
			<path fill="url(#SVGID_16_)" d="M95.014,51.748c-0.175,0-0.349,0.012-0.518,0.031c2.228,0.257,3.96,2.15,3.96,4.448
				c0,2.298-1.732,4.19-3.96,4.447c0.169,0.021,0.343,0.031,0.518,0.031c2.474,0,4.478-2.005,4.478-4.478
				C99.491,53.754,97.487,51.748,95.014,51.748z"/>
			<circle fill="#FFFFFF" cx="97.422" cy="54.565" r="1.259"/>
		</g>
		<g>
			<linearGradient id="SVGID_17_" gradientUnits="userSpaceOnUse" x1="98.2769" y1="40.7695" x2="98.2769" y2="31.813">
				<stop  offset="0" style="stop-color:#000000"/>
				<stop  offset="0.0616" style="stop-color:#282828"/>
				<stop  offset="0.1417" style="stop-color:#545454"/>
				<stop  offset="0.2277" style="stop-color:#7B7B7B"/>
				<stop  offset="0.3185" style="stop-color:#9C9C9C"/>
				<stop  offset="0.4153" style="stop-color:#B7B7B7"/>
				<stop  offset="0.5204" style="stop-color:#CCCCCC"/>
				<stop  offset="0.6381" style="stop-color:#DBDBDB"/>
				<stop  offset="0.7783" style="stop-color:#E3E3E3"/>
				<stop  offset="1" style="stop-color:#E6E6E6"/>
			</linearGradient>
			<circle fill="url(#SVGID_17_)" cx="98.277" cy="36.292" r="4.478"/>
			<linearGradient id="SVGID_18_" gradientUnits="userSpaceOnUse" x1="100.2573" y1="40.7695" x2="100.2573" y2="31.813">
				<stop  offset="0" style="stop-color:#4D4D4D"/>
				<stop  offset="0.0176" style="stop-color:#545454"/>
				<stop  offset="0.1143" style="stop-color:#7B7B7B"/>
				<stop  offset="0.2184" style="stop-color:#9C9C9C"/>
				<stop  offset="0.3294" style="stop-color:#B7B7B7"/>
				<stop  offset="0.4499" style="stop-color:#CCCCCC"/>
				<stop  offset="0.5849" style="stop-color:#DADADA"/>
				<stop  offset="0.7457" style="stop-color:#E3E3E3"/>
				<stop  offset="1" style="stop-color:#E6E6E6"/>
			</linearGradient>
			<path fill="url(#SVGID_18_)" d="M98.276,31.813c-0.174,0-0.348,0.011-0.517,0.031c2.229,0.257,3.959,2.149,3.959,4.448
				c0,2.298-1.731,4.19-3.959,4.447c0.169,0.02,0.343,0.031,0.517,0.031c2.474,0,4.478-2.005,4.478-4.478
				C102.754,33.818,100.75,31.813,98.276,31.813z"/>
			<circle fill="#FFFFFF" cx="100.687" cy="34.629" r="1.258"/>
		</g>
		<g>
			<linearGradient id="SVGID_19_" gradientUnits="userSpaceOnUse" x1="69.395" y1="25.5498" x2="69.395" y2="16.5933">
				<stop  offset="0" style="stop-color:#000000"/>
				<stop  offset="0.0616" style="stop-color:#282828"/>
				<stop  offset="0.1417" style="stop-color:#545454"/>
				<stop  offset="0.2277" style="stop-color:#7B7B7B"/>
				<stop  offset="0.3185" style="stop-color:#9C9C9C"/>
				<stop  offset="0.4153" style="stop-color:#B7B7B7"/>
				<stop  offset="0.5204" style="stop-color:#CCCCCC"/>
				<stop  offset="0.6381" style="stop-color:#DBDBDB"/>
				<stop  offset="0.7783" style="stop-color:#E3E3E3"/>
				<stop  offset="1" style="stop-color:#E6E6E6"/>
			</linearGradient>
			<circle fill="url(#SVGID_19_)" cx="69.395" cy="21.072" r="4.478"/>
			<linearGradient id="SVGID_20_" gradientUnits="userSpaceOnUse" x1="71.3745" y1="25.5498" x2="71.3745" y2="16.5933">
				<stop  offset="0" style="stop-color:#4D4D4D"/>
				<stop  offset="0.0176" style="stop-color:#545454"/>
				<stop  offset="0.1143" style="stop-color:#7B7B7B"/>
				<stop  offset="0.2184" style="stop-color:#9C9C9C"/>
				<stop  offset="0.3294" style="stop-color:#B7B7B7"/>
				<stop  offset="0.4499" style="stop-color:#CCCCCC"/>
				<stop  offset="0.5849" style="stop-color:#DADADA"/>
				<stop  offset="0.7457" style="stop-color:#E3E3E3"/>
				<stop  offset="1" style="stop-color:#E6E6E6"/>
			</linearGradient>
			<path fill="url(#SVGID_20_)" d="M69.396,16.593c-0.176,0-0.349,0.011-0.519,0.031c2.229,0.257,3.961,2.149,3.961,4.448
				s-1.731,4.19-3.961,4.447c0.17,0.02,0.343,0.031,0.519,0.031c2.473,0,4.478-2.005,4.478-4.478
				C73.873,18.599,71.869,16.593,69.396,16.593z"/>
			<circle fill="#FFFFFF" cx="71.803" cy="19.409" r="1.259"/>
		</g>
		<g>
			<linearGradient id="SVGID_21_" gradientUnits="userSpaceOnUse" x1="76.7896" y1="17.8179" x2="76.7896" y2="8.8623">
				<stop  offset="0" style="stop-color:#000000"/>
				<stop  offset="0.0616" style="stop-color:#282828"/>
				<stop  offset="0.1417" style="stop-color:#545454"/>
				<stop  offset="0.2277" style="stop-color:#7B7B7B"/>
				<stop  offset="0.3185" style="stop-color:#9C9C9C"/>
				<stop  offset="0.4153" style="stop-color:#B7B7B7"/>
				<stop  offset="0.5204" style="stop-color:#CCCCCC"/>
				<stop  offset="0.6381" style="stop-color:#DBDBDB"/>
				<stop  offset="0.7783" style="stop-color:#E3E3E3"/>
				<stop  offset="1" style="stop-color:#E6E6E6"/>
			</linearGradient>
			<circle fill="url(#SVGID_21_)" cx="76.79" cy="13.34" r="4.478"/>
			<linearGradient id="SVGID_22_" gradientUnits="userSpaceOnUse" x1="78.77" y1="17.8179" x2="78.77" y2="8.8623">
				<stop  offset="0" style="stop-color:#4D4D4D"/>
				<stop  offset="0.0176" style="stop-color:#545454"/>
				<stop  offset="0.1143" style="stop-color:#7B7B7B"/>
				<stop  offset="0.2184" style="stop-color:#9C9C9C"/>
				<stop  offset="0.3294" style="stop-color:#B7B7B7"/>
				<stop  offset="0.4499" style="stop-color:#CCCCCC"/>
				<stop  offset="0.5849" style="stop-color:#DADADA"/>
				<stop  offset="0.7457" style="stop-color:#E3E3E3"/>
				<stop  offset="1" style="stop-color:#E6E6E6"/>
			</linearGradient>
			<path fill="url(#SVGID_22_)" d="M76.79,8.862c-0.175,0-0.349,0.01-0.518,0.03c2.228,0.257,3.959,2.149,3.959,4.448
				c0,2.299-1.731,4.19-3.959,4.447c0.169,0.021,0.343,0.031,0.518,0.031c2.473,0,4.479-2.005,4.479-4.478S79.262,8.862,76.79,8.862
				z"/>
			<circle fill="#FFFFFF" cx="79.198" cy="11.678" r="1.258"/>
		</g>
		<g>
			<linearGradient id="SVGID_23_" gradientUnits="userSpaceOnUse" x1="86.4673" y1="16.3613" x2="86.4673" y2="7.4048">
				<stop  offset="0" style="stop-color:#000000"/>
				<stop  offset="0.0616" style="stop-color:#282828"/>
				<stop  offset="0.1417" style="stop-color:#545454"/>
				<stop  offset="0.2277" style="stop-color:#7B7B7B"/>
				<stop  offset="0.3185" style="stop-color:#9C9C9C"/>
				<stop  offset="0.4153" style="stop-color:#B7B7B7"/>
				<stop  offset="0.5204" style="stop-color:#CCCCCC"/>
				<stop  offset="0.6381" style="stop-color:#DBDBDB"/>
				<stop  offset="0.7783" style="stop-color:#E3E3E3"/>
				<stop  offset="1" style="stop-color:#E6E6E6"/>
			</linearGradient>
			<circle fill="url(#SVGID_23_)" cx="86.467" cy="11.883" r="4.478"/>
			<linearGradient id="SVGID_24_" gradientUnits="userSpaceOnUse" x1="88.4468" y1="16.3613" x2="88.4468" y2="7.4048">
				<stop  offset="0" style="stop-color:#4D4D4D"/>
				<stop  offset="0.0176" style="stop-color:#545454"/>
				<stop  offset="0.1143" style="stop-color:#7B7B7B"/>
				<stop  offset="0.2184" style="stop-color:#9C9C9C"/>
				<stop  offset="0.3294" style="stop-color:#B7B7B7"/>
				<stop  offset="0.4499" style="stop-color:#CCCCCC"/>
				<stop  offset="0.5849" style="stop-color:#DADADA"/>
				<stop  offset="0.7457" style="stop-color:#E3E3E3"/>
				<stop  offset="1" style="stop-color:#E6E6E6"/>
			</linearGradient>
			<path fill="url(#SVGID_24_)" d="M86.467,7.405c-0.175,0-0.349,0.011-0.518,0.031c2.229,0.257,3.96,2.148,3.96,4.447
				c0,2.298-1.731,4.191-3.96,4.448c0.169,0.02,0.343,0.031,0.518,0.031c2.473,0,4.478-2.006,4.478-4.479S88.94,7.405,86.467,7.405z
				"/>
			<circle fill="#FFFFFF" cx="88.876" cy="10.22" r="1.259"/>
		</g>
		<g>
			<linearGradient id="SVGID_25_" gradientUnits="userSpaceOnUse" x1="93.8325" y1="22.6489" x2="93.8325" y2="13.6934">
				<stop  offset="0" style="stop-color:#000000"/>
				<stop  offset="0.0616" style="stop-color:#282828"/>
				<stop  offset="0.1417" style="stop-color:#545454"/>
				<stop  offset="0.2277" style="stop-color:#7B7B7B"/>
				<stop  offset="0.3185" style="stop-color:#9C9C9C"/>
				<stop  offset="0.4153" style="stop-color:#B7B7B7"/>
				<stop  offset="0.5204" style="stop-color:#CCCCCC"/>
				<stop  offset="0.6381" style="stop-color:#DBDBDB"/>
				<stop  offset="0.7783" style="stop-color:#E3E3E3"/>
				<stop  offset="1" style="stop-color:#E6E6E6"/>
			</linearGradient>
			<circle fill="url(#SVGID_25_)" cx="93.832" cy="18.171" r="4.478"/>
			<linearGradient id="SVGID_26_" gradientUnits="userSpaceOnUse" x1="95.812" y1="22.6489" x2="95.812" y2="13.6934">
				<stop  offset="0" style="stop-color:#4D4D4D"/>
				<stop  offset="0.0176" style="stop-color:#545454"/>
				<stop  offset="0.1143" style="stop-color:#7B7B7B"/>
				<stop  offset="0.2184" style="stop-color:#9C9C9C"/>
				<stop  offset="0.3294" style="stop-color:#B7B7B7"/>
				<stop  offset="0.4499" style="stop-color:#CCCCCC"/>
				<stop  offset="0.5849" style="stop-color:#DADADA"/>
				<stop  offset="0.7457" style="stop-color:#E3E3E3"/>
				<stop  offset="1" style="stop-color:#E6E6E6"/>
			</linearGradient>
			<path fill="url(#SVGID_26_)" d="M93.833,13.693c-0.176,0-0.349,0.011-0.519,0.03c2.229,0.256,3.96,2.149,3.96,4.448
				c0,2.298-1.732,4.19-3.96,4.448c0.169,0.02,0.343,0.03,0.519,0.03c2.472,0,4.477-2.004,4.477-4.478S96.305,13.693,93.833,13.693z
				"/>
			<circle fill="#FFFFFF" cx="96.241" cy="16.508" r="1.259"/>
		</g>
		<g>
			<linearGradient id="SVGID_27_" gradientUnits="userSpaceOnUse" x1="98.2534" y1="31.1245" x2="98.2534" y2="22.168">
				<stop  offset="0" style="stop-color:#000000"/>
				<stop  offset="0.0616" style="stop-color:#282828"/>
				<stop  offset="0.1417" style="stop-color:#545454"/>
				<stop  offset="0.2277" style="stop-color:#7B7B7B"/>
				<stop  offset="0.3185" style="stop-color:#9C9C9C"/>
				<stop  offset="0.4153" style="stop-color:#B7B7B7"/>
				<stop  offset="0.5204" style="stop-color:#CCCCCC"/>
				<stop  offset="0.6381" style="stop-color:#DBDBDB"/>
				<stop  offset="0.7783" style="stop-color:#E3E3E3"/>
				<stop  offset="1" style="stop-color:#E6E6E6"/>
			</linearGradient>
			<circle fill="url(#SVGID_27_)" cx="98.253" cy="26.646" r="4.478"/>
			<linearGradient id="SVGID_28_" gradientUnits="userSpaceOnUse" x1="100.2329" y1="31.1245" x2="100.2329" y2="22.168">
				<stop  offset="0" style="stop-color:#4D4D4D"/>
				<stop  offset="0.0176" style="stop-color:#545454"/>
				<stop  offset="0.1143" style="stop-color:#7B7B7B"/>
				<stop  offset="0.2184" style="stop-color:#9C9C9C"/>
				<stop  offset="0.3294" style="stop-color:#B7B7B7"/>
				<stop  offset="0.4499" style="stop-color:#CCCCCC"/>
				<stop  offset="0.5849" style="stop-color:#DADADA"/>
				<stop  offset="0.7457" style="stop-color:#E3E3E3"/>
				<stop  offset="1" style="stop-color:#E6E6E6"/>
			</linearGradient>
			<path fill="url(#SVGID_28_)" d="M98.253,22.168c-0.176,0-0.348,0.011-0.519,0.031c2.229,0.256,3.96,2.148,3.96,4.446
				c0,2.298-1.731,4.191-3.96,4.448c0.17,0.02,0.343,0.031,0.519,0.031c2.473,0,4.478-2.005,4.478-4.479
				C102.731,24.174,100.727,22.168,98.253,22.168z"/>
			<circle fill="#FFFFFF" cx="100.661" cy="24.984" r="1.258"/>
		</g>
		<g>
			<linearGradient id="SVGID_29_" gradientUnits="userSpaceOnUse" x1="96.7202" y1="50.4927" x2="96.7202" y2="41.5356">
				<stop  offset="0" style="stop-color:#000000"/>
				<stop  offset="0.0616" style="stop-color:#282828"/>
				<stop  offset="0.1417" style="stop-color:#545454"/>
				<stop  offset="0.2277" style="stop-color:#7B7B7B"/>
				<stop  offset="0.3185" style="stop-color:#9C9C9C"/>
				<stop  offset="0.4153" style="stop-color:#B7B7B7"/>
				<stop  offset="0.5204" style="stop-color:#CCCCCC"/>
				<stop  offset="0.6381" style="stop-color:#DBDBDB"/>
				<stop  offset="0.7783" style="stop-color:#E3E3E3"/>
				<stop  offset="1" style="stop-color:#E6E6E6"/>
			</linearGradient>
			<circle fill="url(#SVGID_29_)" cx="96.72" cy="46.014" r="4.478"/>
			<linearGradient id="SVGID_30_" gradientUnits="userSpaceOnUse" x1="98.6997" y1="50.4927" x2="98.6997" y2="41.5356">
				<stop  offset="0" style="stop-color:#4D4D4D"/>
				<stop  offset="0.0176" style="stop-color:#545454"/>
				<stop  offset="0.1143" style="stop-color:#7B7B7B"/>
				<stop  offset="0.2184" style="stop-color:#9C9C9C"/>
				<stop  offset="0.3294" style="stop-color:#B7B7B7"/>
				<stop  offset="0.4499" style="stop-color:#CCCCCC"/>
				<stop  offset="0.5849" style="stop-color:#DADADA"/>
				<stop  offset="0.7457" style="stop-color:#E3E3E3"/>
				<stop  offset="1" style="stop-color:#E6E6E6"/>
			</linearGradient>
			<path fill="url(#SVGID_30_)" d="M96.72,41.536c-0.175,0-0.348,0.011-0.519,0.032c2.229,0.256,3.961,2.149,3.961,4.446
				c0,2.298-1.732,4.191-3.961,4.448c0.171,0.02,0.343,0.031,0.519,0.031c2.474,0,4.478-2.005,4.478-4.479
				C101.198,43.541,99.194,41.536,96.72,41.536z"/>
			<circle fill="#FFFFFF" cx="99.129" cy="44.352" r="1.259"/>
		</g>
		<g>
			<linearGradient id="SVGID_31_" gradientUnits="userSpaceOnUse" x1="67.9526" y1="45.1738" x2="67.9526" y2="36.2173">
				<stop  offset="0" style="stop-color:#000000"/>
				<stop  offset="0.0616" style="stop-color:#282828"/>
				<stop  offset="0.1417" style="stop-color:#545454"/>
				<stop  offset="0.2277" style="stop-color:#7B7B7B"/>
				<stop  offset="0.3185" style="stop-color:#9C9C9C"/>
				<stop  offset="0.4153" style="stop-color:#B7B7B7"/>
				<stop  offset="0.5204" style="stop-color:#CCCCCC"/>
				<stop  offset="0.6381" style="stop-color:#DBDBDB"/>
				<stop  offset="0.7783" style="stop-color:#E3E3E3"/>
				<stop  offset="1" style="stop-color:#E6E6E6"/>
			</linearGradient>
			<circle fill="url(#SVGID_31_)" cx="67.952" cy="40.696" r="4.478"/>
			<linearGradient id="SVGID_32_" gradientUnits="userSpaceOnUse" x1="69.9321" y1="45.1738" x2="69.9321" y2="36.2173">
				<stop  offset="0" style="stop-color:#4D4D4D"/>
				<stop  offset="0.0176" style="stop-color:#545454"/>
				<stop  offset="0.1143" style="stop-color:#7B7B7B"/>
				<stop  offset="0.2184" style="stop-color:#9C9C9C"/>
				<stop  offset="0.3294" style="stop-color:#B7B7B7"/>
				<stop  offset="0.4499" style="stop-color:#CCCCCC"/>
				<stop  offset="0.5849" style="stop-color:#DADADA"/>
				<stop  offset="0.7457" style="stop-color:#E3E3E3"/>
				<stop  offset="1" style="stop-color:#E6E6E6"/>
			</linearGradient>
			<path fill="url(#SVGID_32_)" d="M67.953,36.217c-0.175,0-0.349,0.01-0.519,0.031c2.229,0.257,3.961,2.149,3.961,4.448
				s-1.732,4.19-3.961,4.447c0.169,0.02,0.343,0.031,0.519,0.031c2.473,0,4.478-2.005,4.478-4.478
				C72.431,38.223,70.426,36.217,67.953,36.217z"/>
			<circle fill="#FFFFFF" cx="70.361" cy="39.033" r="1.258"/>
		</g>
		<g>
			<linearGradient id="SVGID_33_" gradientUnits="userSpaceOnUse" x1="68.3145" y1="35.3848" x2="68.3145" y2="26.4282">
				<stop  offset="0" style="stop-color:#000000"/>
				<stop  offset="0.0616" style="stop-color:#282828"/>
				<stop  offset="0.1417" style="stop-color:#545454"/>
				<stop  offset="0.2277" style="stop-color:#7B7B7B"/>
				<stop  offset="0.3185" style="stop-color:#9C9C9C"/>
				<stop  offset="0.4153" style="stop-color:#B7B7B7"/>
				<stop  offset="0.5204" style="stop-color:#CCCCCC"/>
				<stop  offset="0.6381" style="stop-color:#DBDBDB"/>
				<stop  offset="0.7783" style="stop-color:#E3E3E3"/>
				<stop  offset="1" style="stop-color:#E6E6E6"/>
			</linearGradient>
			<circle fill="url(#SVGID_33_)" cx="68.314" cy="30.907" r="4.478"/>
			<linearGradient id="SVGID_34_" gradientUnits="userSpaceOnUse" x1="70.2944" y1="35.3848" x2="70.2944" y2="26.4282">
				<stop  offset="0" style="stop-color:#4D4D4D"/>
				<stop  offset="0.0176" style="stop-color:#545454"/>
				<stop  offset="0.1143" style="stop-color:#7B7B7B"/>
				<stop  offset="0.2184" style="stop-color:#9C9C9C"/>
				<stop  offset="0.3294" style="stop-color:#B7B7B7"/>
				<stop  offset="0.4499" style="stop-color:#CCCCCC"/>
				<stop  offset="0.5849" style="stop-color:#DADADA"/>
				<stop  offset="0.7457" style="stop-color:#E3E3E3"/>
				<stop  offset="1" style="stop-color:#E6E6E6"/>
			</linearGradient>
			<path fill="url(#SVGID_34_)" d="M68.314,26.428c-0.176,0-0.349,0.011-0.519,0.031c2.229,0.257,3.96,2.15,3.96,4.448
				c0,2.298-1.731,4.19-3.96,4.447c0.17,0.021,0.343,0.031,0.519,0.031c2.473,0,4.478-2.006,4.478-4.478
				C72.792,28.434,70.788,26.428,68.314,26.428z"/>
			<circle fill="#FFFFFF" cx="70.723" cy="29.245" r="1.259"/>
		</g>
		<g>
			<linearGradient id="SVGID_35_" gradientUnits="userSpaceOnUse" x1="69.0024" y1="55.0703" x2="69.0024" y2="46.1133">
				<stop  offset="0" style="stop-color:#000000"/>
				<stop  offset="0.0616" style="stop-color:#282828"/>
				<stop  offset="0.1417" style="stop-color:#545454"/>
				<stop  offset="0.2277" style="stop-color:#7B7B7B"/>
				<stop  offset="0.3185" style="stop-color:#9C9C9C"/>
				<stop  offset="0.4153" style="stop-color:#B7B7B7"/>
				<stop  offset="0.5204" style="stop-color:#CCCCCC"/>
				<stop  offset="0.6381" style="stop-color:#DBDBDB"/>
				<stop  offset="0.7783" style="stop-color:#E3E3E3"/>
				<stop  offset="1" style="stop-color:#E6E6E6"/>
			</linearGradient>
			<circle fill="url(#SVGID_35_)" cx="69.002" cy="50.591" r="4.478"/>
			<linearGradient id="SVGID_36_" gradientUnits="userSpaceOnUse" x1="70.9829" y1="55.0703" x2="70.9829" y2="46.1133">
				<stop  offset="0" style="stop-color:#4D4D4D"/>
				<stop  offset="0.0176" style="stop-color:#545454"/>
				<stop  offset="0.1143" style="stop-color:#7B7B7B"/>
				<stop  offset="0.2184" style="stop-color:#9C9C9C"/>
				<stop  offset="0.3294" style="stop-color:#B7B7B7"/>
				<stop  offset="0.4499" style="stop-color:#CCCCCC"/>
				<stop  offset="0.5849" style="stop-color:#DADADA"/>
				<stop  offset="0.7457" style="stop-color:#E3E3E3"/>
				<stop  offset="1" style="stop-color:#E6E6E6"/>
			</linearGradient>
			<path fill="url(#SVGID_36_)" d="M69.002,46.113c-0.174,0-0.348,0.011-0.517,0.031c2.229,0.257,3.959,2.148,3.959,4.446
				c0,2.299-1.73,4.191-3.959,4.449c0.169,0.02,0.343,0.031,0.517,0.031c2.473,0,4.479-2.006,4.479-4.479
				C73.48,48.119,71.475,46.113,69.002,46.113z"/>
			<circle fill="#FFFFFF" cx="71.412" cy="48.929" r="1.259"/>
		</g>
		<path d="M84.165,87.434c-2.185-0.354-4.617-2.14-6.643-7.495c-1.983-5.282-4.027-11.51-5.717-17.886h-0.888
			c1.71,6.484,3.79,12.814,5.803,18.187c2.082,5.601,4.856,7.7,7.445,8.059V87.434z"/>
		<g>
			<linearGradient id="SVGID_37_" gradientUnits="userSpaceOnUse" x1="82.5493" y1="91.668" x2="82.5493" y2="82.7114">
				<stop  offset="0" style="stop-color:#000000"/>
				<stop  offset="0.0616" style="stop-color:#282828"/>
				<stop  offset="0.1417" style="stop-color:#545454"/>
				<stop  offset="0.2277" style="stop-color:#7B7B7B"/>
				<stop  offset="0.3185" style="stop-color:#9C9C9C"/>
				<stop  offset="0.4153" style="stop-color:#B7B7B7"/>
				<stop  offset="0.5204" style="stop-color:#CCCCCC"/>
				<stop  offset="0.6381" style="stop-color:#DBDBDB"/>
				<stop  offset="0.7783" style="stop-color:#E3E3E3"/>
				<stop  offset="1" style="stop-color:#E6E6E6"/>
			</linearGradient>
			<circle fill="url(#SVGID_37_)" cx="82.549" cy="87.19" r="4.478"/>
			<linearGradient id="SVGID_38_" gradientUnits="userSpaceOnUse" x1="84.5293" y1="91.668" x2="84.5293" y2="82.7114">
				<stop  offset="0" style="stop-color:#4D4D4D"/>
				<stop  offset="0.0176" style="stop-color:#545454"/>
				<stop  offset="0.1143" style="stop-color:#7B7B7B"/>
				<stop  offset="0.2184" style="stop-color:#9C9C9C"/>
				<stop  offset="0.3294" style="stop-color:#B7B7B7"/>
				<stop  offset="0.4499" style="stop-color:#CCCCCC"/>
				<stop  offset="0.5849" style="stop-color:#DADADA"/>
				<stop  offset="0.7457" style="stop-color:#E3E3E3"/>
				<stop  offset="1" style="stop-color:#E6E6E6"/>
			</linearGradient>
			<path fill="url(#SVGID_38_)" d="M82.549,82.711c-0.174,0-0.348,0.01-0.518,0.031c2.229,0.257,3.96,2.149,3.96,4.448
				s-1.731,4.19-3.96,4.447c0.17,0.02,0.344,0.031,0.518,0.031c2.473,0,4.478-2.006,4.478-4.478
				C87.027,84.717,85.022,82.711,82.549,82.711z"/>
			<circle fill="#FFFFFF" cx="84.959" cy="85.527" r="1.259"/>
		</g>
		<g>
			<linearGradient id="SVGID_39_" gradientUnits="userSpaceOnUse" x1="73.5308" y1="74.5732" x2="73.5308" y2="65.6172">
				<stop  offset="0" style="stop-color:#000000"/>
				<stop  offset="0.0616" style="stop-color:#282828"/>
				<stop  offset="0.1417" style="stop-color:#545454"/>
				<stop  offset="0.2277" style="stop-color:#7B7B7B"/>
				<stop  offset="0.3185" style="stop-color:#9C9C9C"/>
				<stop  offset="0.4153" style="stop-color:#B7B7B7"/>
				<stop  offset="0.5204" style="stop-color:#CCCCCC"/>
				<stop  offset="0.6381" style="stop-color:#DBDBDB"/>
				<stop  offset="0.7783" style="stop-color:#E3E3E3"/>
				<stop  offset="1" style="stop-color:#E6E6E6"/>
			</linearGradient>
			<circle fill="url(#SVGID_39_)" cx="73.531" cy="70.095" r="4.478"/>
			<linearGradient id="SVGID_40_" gradientUnits="userSpaceOnUse" x1="75.5112" y1="74.5732" x2="75.5112" y2="65.6172">
				<stop  offset="0" style="stop-color:#4D4D4D"/>
				<stop  offset="0.0176" style="stop-color:#545454"/>
				<stop  offset="0.1143" style="stop-color:#7B7B7B"/>
				<stop  offset="0.2184" style="stop-color:#9C9C9C"/>
				<stop  offset="0.3294" style="stop-color:#B7B7B7"/>
				<stop  offset="0.4499" style="stop-color:#CCCCCC"/>
				<stop  offset="0.5849" style="stop-color:#DADADA"/>
				<stop  offset="0.7457" style="stop-color:#E3E3E3"/>
				<stop  offset="1" style="stop-color:#E6E6E6"/>
			</linearGradient>
			<path fill="url(#SVGID_40_)" d="M73.531,65.617c-0.176,0-0.349,0.011-0.518,0.031c2.229,0.257,3.96,2.148,3.96,4.447
				c0,2.298-1.731,4.19-3.96,4.448c0.169,0.02,0.342,0.03,0.518,0.03c2.473,0,4.478-2.005,4.478-4.478
				C78.009,67.623,76.004,65.617,73.531,65.617z"/>
			<circle fill="#FFFFFF" cx="75.94" cy="68.433" r="1.258"/>
		</g>
		<g>
			<linearGradient id="SVGID_41_" gradientUnits="userSpaceOnUse" x1="76.5889" y1="83.9536" x2="76.5889" y2="74.998">
				<stop  offset="0" style="stop-color:#000000"/>
				<stop  offset="0.0616" style="stop-color:#282828"/>
				<stop  offset="0.1417" style="stop-color:#545454"/>
				<stop  offset="0.2277" style="stop-color:#7B7B7B"/>
				<stop  offset="0.3185" style="stop-color:#9C9C9C"/>
				<stop  offset="0.4153" style="stop-color:#B7B7B7"/>
				<stop  offset="0.5204" style="stop-color:#CCCCCC"/>
				<stop  offset="0.6381" style="stop-color:#DBDBDB"/>
				<stop  offset="0.7783" style="stop-color:#E3E3E3"/>
				<stop  offset="1" style="stop-color:#E6E6E6"/>
			</linearGradient>
			<circle fill="url(#SVGID_41_)" cx="76.589" cy="79.476" r="4.478"/>
			<linearGradient id="SVGID_42_" gradientUnits="userSpaceOnUse" x1="78.5688" y1="83.9536" x2="78.5688" y2="74.998">
				<stop  offset="0" style="stop-color:#4D4D4D"/>
				<stop  offset="0.0176" style="stop-color:#545454"/>
				<stop  offset="0.1143" style="stop-color:#7B7B7B"/>
				<stop  offset="0.2184" style="stop-color:#9C9C9C"/>
				<stop  offset="0.3294" style="stop-color:#B7B7B7"/>
				<stop  offset="0.4499" style="stop-color:#CCCCCC"/>
				<stop  offset="0.5849" style="stop-color:#DADADA"/>
				<stop  offset="0.7457" style="stop-color:#E3E3E3"/>
				<stop  offset="1" style="stop-color:#E6E6E6"/>
			</linearGradient>
			<path fill="url(#SVGID_42_)" d="M76.589,74.998c-0.175,0-0.348,0.011-0.518,0.031c2.229,0.257,3.96,2.148,3.96,4.447
				c0,2.299-1.731,4.191-3.96,4.448c0.17,0.021,0.342,0.03,0.518,0.03c2.473,0,4.478-2.005,4.478-4.478
				C81.067,77.003,79.062,74.998,76.589,74.998z"/>
			<circle fill="#FFFFFF" cx="78.998" cy="77.813" r="1.259"/>
		</g>
		<g>
			<linearGradient id="SVGID_43_" gradientUnits="userSpaceOnUse" x1="71.0171" y1="64.8867" x2="71.0171" y2="55.9302">
				<stop  offset="0" style="stop-color:#000000"/>
				<stop  offset="0.0616" style="stop-color:#282828"/>
				<stop  offset="0.1417" style="stop-color:#545454"/>
				<stop  offset="0.2277" style="stop-color:#7B7B7B"/>
				<stop  offset="0.3185" style="stop-color:#9C9C9C"/>
				<stop  offset="0.4153" style="stop-color:#B7B7B7"/>
				<stop  offset="0.5204" style="stop-color:#CCCCCC"/>
				<stop  offset="0.6381" style="stop-color:#DBDBDB"/>
				<stop  offset="0.7783" style="stop-color:#E3E3E3"/>
				<stop  offset="1" style="stop-color:#E6E6E6"/>
			</linearGradient>
			<circle fill="url(#SVGID_43_)" cx="71.017" cy="60.408" r="4.478"/>
			<linearGradient id="SVGID_44_" gradientUnits="userSpaceOnUse" x1="72.9966" y1="64.8867" x2="72.9966" y2="55.9302">
				<stop  offset="0" style="stop-color:#4D4D4D"/>
				<stop  offset="0.0176" style="stop-color:#545454"/>
				<stop  offset="0.1143" style="stop-color:#7B7B7B"/>
				<stop  offset="0.2184" style="stop-color:#9C9C9C"/>
				<stop  offset="0.3294" style="stop-color:#B7B7B7"/>
				<stop  offset="0.4499" style="stop-color:#CCCCCC"/>
				<stop  offset="0.5849" style="stop-color:#DADADA"/>
				<stop  offset="0.7457" style="stop-color:#E3E3E3"/>
				<stop  offset="1" style="stop-color:#E6E6E6"/>
			</linearGradient>
			<path fill="url(#SVGID_44_)" d="M71.017,55.93c-0.176,0-0.348,0.011-0.519,0.031c2.23,0.257,3.96,2.149,3.96,4.447
				c0,2.298-1.73,4.19-3.96,4.448c0.171,0.02,0.343,0.031,0.519,0.031c2.473,0,4.478-2.005,4.478-4.479
				C75.495,57.936,73.49,55.93,71.017,55.93z"/>
			<circle fill="#FFFFFF" cx="73.426" cy="58.746" r="1.259"/>
		</g>
	</g>
	
		<radialGradient id="SVGID_45_" cx="109.2974" cy="-546.8438" r="104.0945" gradientTransform="matrix(1 0 0 0.1171 0 395.0805)" gradientUnits="userSpaceOnUse">
		<stop  offset="0" style="stop-color:#E6E6E6"/>
		<stop  offset="1" style="stop-color:#FFFFFF"/>
	</radialGradient>
	<ellipse fill="url(#SVGID_45_)" cx="109.297" cy="331.046" rx="104.095" ry="12.188"/>
</g>
<g>
	<path fill="#FFFFFF" d="M67.287,160.952c0,0.081,0.021,0.221,0.062,0.422c0,0.201,0,0.362,0,0.482c0,0.482-0.06,0.963-0.18,1.445
		c-0.24,0.161-0.48,0.241-0.72,0.241h-0.18c-0.72,0-1.541-0.187-2.46-0.56c-0.28-0.166-0.42-0.457-0.42-0.872v-0.249
		c-0.329,0.081-0.576,0.12-0.739,0.12c-0.534,0-1.089-0.24-1.664-0.72c-0.821-0.919-1.417-1.939-1.786-3.06
		c-0.288-0.6-0.431-1.239-0.431-1.92v-0.42c0.23-0.36,0.53-0.699,0.9-1.02l-1.02-0.9c-0.161-2.08-0.24-3.6-0.24-4.56v-0.96
		c0.08-0.36,0.279-0.54,0.6-0.54h0.18c0.08,0,0.2-0.02,0.36-0.06c0.159,0,0.26,0,0.3,0c0.92,0,1.58,0.24,1.98,0.72l0.36-0.36
		l0.48-0.18c0.12,0,0.279-0.02,0.48-0.06c0.24,0,0.399,0,0.48,0c0.56,0,1.08,0.06,1.56,0.18c0.12-0.04,0.3-0.06,0.54-0.06
		c0.279,0,0.42,0.081,0.42,0.241v2.832c-0.161,0.241-0.36,0.481-0.6,0.723c0.399,0.401,0.669,1.044,0.81,1.927
		c0.14,0.883,0.369,1.486,0.69,1.807c0.159,0.121,0.24,0.302,0.24,0.542c0,0.042,0,0.182,0,0.422
		c-0.041,0.242-0.06,0.462-0.06,0.663c0,0.121,0.02,0.302,0.06,0.542c0,0.242,0,0.402,0,0.482c0,0.724-0.381,1.306-1.14,1.747
		C66.738,160.19,67.118,160.511,67.287,160.952z M78.27,151.708v0.06c0,0.281-0.48,0.662-1.44,1.142
		c0.96,0.401,1.44,1.122,1.44,2.163c0,1.882-1.56,4.267-4.68,7.15c-0.12,0.041-0.261,0.06-0.42,0.06c-0.12,0-0.48-0.2-1.08-0.6
		l-0.42,1.26c-0.48,0.399-1.061,0.6-1.74,0.6c-0.36-0.161-0.58-0.46-0.66-0.9c0-0.12,0-0.28,0-0.48c0-0.2,0-0.339,0-0.42
		c0-0.279,0.048-0.66,0.148-1.14c0.494-0.48,0.864-0.819,1.112-1.02c-0.84-0.12-1.26-0.399-1.26-0.84v-2.58
		c0-0.08,0.157-0.29,0.473-0.63c0.315-0.339,0.498-0.709,0.547-1.11c0.075-0.6,0.188-2.06,0.338-4.38l0.622-0.36
		c-0.074-0.08-0.314-0.459-0.72-1.14v-9.9c0.08-0.36,0.279-0.56,0.6-0.6c-0.4-0.36-0.6-1-0.6-1.92c0-0.44,0-1.12,0-2.04
		c0-0.96,0-1.7,0-2.22c0-1.399,0-2.479,0-3.24l0.12-0.42l-0.12-0.06c0.32-0.32,0.58-0.54,0.78-0.66l-0.259-0.18
		c-0.244-0.12-0.399-0.319-0.469-0.6c-0.035-0.639-0.052-1.58-0.052-2.82c0-0.32,0-0.8,0-1.44c0-0.639,0-1.1,0-1.38v-0.18
		c0-0.48,0.221-0.74,0.666-0.78c0.12,0,0.281-0.02,0.484-0.06c0.201,0,0.342,0,0.423,0c1.209,0,1.955,0.3,2.238,0.9
		c0.322-0.6,0.887-0.9,1.693-0.9h0.726c0.926,0,1.43,0.16,1.511,0.481c0,2.323,0,3.886,0,4.687c0,1.362-0.3,2.344-0.9,2.944
		c0.343,0.161,0.622,0.321,0.835,0.481c0,1.042,0.021,2.363,0.065,3.965c0,1.643,0,2.744,0,3.305c0,0.401-0.085,1.482-0.255,3.245
		c-0.17,0.321-0.425,0.642-0.765,0.961c0.467,0.041,0.786,0.281,0.956,0.722c0,1.402,0.021,3.305,0.064,5.708
		C78.27,148.984,78.27,150.706,78.27,151.708z"/>
	<path fill="#FFFFFF" d="M91.589,156.132v0.663c0,1.688-0.48,2.671-1.44,2.951c0.879,0.643,1.32,1.467,1.32,2.47
		c0,0.04,0,0.141,0,0.302c-0.04,0.12-0.06,0.22-0.06,0.301c-0.28,0.482-0.64,0.723-1.08,0.723c-0.72,0-1.8-0.228-3.24-0.682
		c-0.16-0.206-0.261-0.433-0.3-0.681l0.06-0.558c-0.16,0.081-0.4,0.12-0.72,0.12c-1.72,0-3-1.86-3.84-5.58
		c-0.161-0.72-0.24-1.22-0.24-1.5c0-0.28,0.219-0.6,0.66-0.96c-0.6-0.159-0.9-0.759-0.9-1.8v-1.86c0-0.56,0.18-0.92,0.54-1.08h2.22
		c0.439,0.24,0.8,0.561,1.08,0.96c0.519-0.68,1.2-1.02,2.04-1.02h1.08c0.519,0,0.78,0.262,0.78,0.783c0,2.169-0.201,3.335-0.6,3.495
		c0.32,0.041,0.58,0.221,0.78,0.542C89.969,154.847,90.589,155.65,91.589,156.132z M103.11,152.202
		c-0.16,0.321-0.42,0.621-0.781,0.9c0.52,0.48,0.781,0.96,0.781,1.44c0,0.12-0.041,0.32-0.121,0.6c-1.012,3.4-2.468,5.72-4.369,6.96
		h-0.121c-0.324,0-0.607-0.3-0.85-0.9v0.12c0,0.6-0.37,1.121-1.109,1.56c-0.74,0.44-1.65,0.66-2.73,0.66
		c-0.24,0-0.359-0.18-0.359-0.54v-0.78c0-0.2,0-0.459,0-0.78c0-0.399,0.055-0.78,0.166-1.14c0.186-0.12,0.391-0.26,0.613-0.42
		c-0.32-0.12-0.53-0.36-0.63-0.72c-0.101-0.36-0.149-0.66-0.149-0.9c0-0.439,0.079-1.14,0.24-2.1c0.998-0.68,1.52-1.64,1.56-2.88
		c0.079-0.56,0.12-0.96,0.12-1.2c0-0.84-0.18-1.58-0.541-2.22v-0.18c0-0.16,0.072-0.3,0.217-0.42l0.145-0.6
		c0-0.16-0.102-0.24-0.303-0.24c-0.08,0-0.181,0.021-0.301,0.06c-0.121,0.04-0.201,0.06-0.242,0.06c-0.16,0-0.321-0.08-0.482-0.24
		c-1.247-1.28-2.674-2.499-4.283-3.66c-0.442-0.399-0.704-0.939-0.785-1.62c-0.161,0.081-0.302,0.12-0.422,0.12
		c-0.442,0-1.287-0.62-2.534-1.86c-0.885-0.879-1.488-1.659-1.81-2.34c0-0.36,0.14-0.62,0.42-0.78c-0.04,0.04-0.1,0.06-0.18,0.06
		c-0.441,0-0.9-0.579-1.38-1.74c-0.48-1.16-0.72-2.439-0.72-3.84c0-0.28,0.109-0.57,0.33-0.87c0.219-0.3,0.33-0.51,0.33-0.63
		c0-0.16-0.16-0.36-0.48-0.6v-0.54c0-1.6,0.26-3.12,0.78-4.56c0.48-1,0.979-1.899,1.5-2.7c0.08,0.041,0.18,0.06,0.3,0.06
		c0.2,0,0.399-0.103,0.6-0.311c0.08-1.203,1.62-2.199,4.62-2.987c0.159-0.042,0.32-0.062,0.48-0.062c0.32,0,0.54,0.123,0.66,0.367
		c0.08,0.489,0.12,0.835,0.12,1.038c0,0.855-0.26,1.629-0.78,2.321l0.66,0.488v2.138c0,0.448-0.281,1.18-0.84,2.198
		c-0.081,0.205-0.201,0.591-0.36,1.161v0.549c0,1.06-0.18,2.2-0.54,3.42l0.122-0.12c0.323,0,0.708,0.3,1.154,0.9
		c0.729,0.88,1.357,1.541,1.884,1.98c1.215,0.76,3.12,2.2,5.713,4.32c0.364,0.36,0.547,0.78,0.547,1.26c0,0.041,0,0.12,0,0.24
		c-0.04,0.081-0.061,0.161-0.061,0.24h0.361c0.479,0,0.859,0.1,1.139,0.3c1.801,2.4,2.701,5.421,2.701,9.06V152.202z
		 M102.69,129.042c0,0.64,0.02,1.26,0.06,1.86c0.039,0.6,0.06,0.88,0.06,0.84c0,0.921-0.394,1.38-1.182,1.38
		c-1.377,0-2.284-0.22-2.717-0.66c-0.197,0.44-0.453,0.66-0.768,0.66h-2.245c-0.472,0-0.708-0.24-0.708-0.72c0-0.08,0-0.27,0-0.57
		c0-0.3,0-0.57,0-0.81c0-0.32,0-0.56,0-0.72c0.068-0.12,0.209-0.24,0.42-0.36c-0.152-0.04-0.551-0.8-1.193-2.28
		c-0.646-0.879-0.967-1.8-0.967-2.76c0-0.24,0.035-0.6,0.106-1.08c0.177-0.24,0.462-0.459,0.853-0.66c-0.64-0.8-0.959-1.5-0.959-2.1
		c0-1.08,0.412-1.62,1.238-1.62c1.257,0,2.533,0.381,3.832,1.14c1.139,0.681,1.709,1.26,1.709,1.74c0,0.081-0.07,0.21-0.209,0.39
		c-0.141,0.18-0.211,0.33-0.211,0.45c0,0.04,0.02,0.06,0.061,0.06c0,0.041,0,0.081,0,0.12c0.24-0.08,0.398-0.12,0.479-0.12
		c0.319,0,0.601,0.12,0.841,0.36c0.759,1.4,1.199,2.68,1.319,3.84L102.69,129.042z"/>
	<path fill="#FFFFFF" d="M41.58,204.462c0,0.521,0.02,1.18,0.06,1.98c0,0.801,0,1.36,0,1.68c0,2.28-0.12,3.561-0.36,3.84
		c-0.24,0.28-0.381,0.5-0.42,0.66c0.476,0.201,0.715,0.64,0.715,1.32c0,0.48,0.021,0.94,0.064,1.38c0,0.4,0,0.581,0,0.54
		c0,0.72-0.504,1.08-1.511,1.08h-0.666c-0.484,0-0.908,0-1.27,0l-0.424-0.788l-0.06-0.112c-0.122,0.6-0.767,0.9-1.935,0.9
		c-0.483,0-0.867-0.02-1.149-0.06c-0.484-0.2-0.726-0.54-0.726-1.02c0.04-1.16,0.06-2.379,0.06-3.66c0-0.399,0-0.999,0-1.8
		c-0.04-0.759-0.06-1.32-0.06-1.68v-0.24c0-0.64,0.24-1.2,0.72-1.68c-0.48-0.72-0.72-1.239-0.72-1.56v-8.4
		c0.04-0.519,0.28-0.939,0.72-1.26c-0.035-0.12-0.103-0.27-0.206-0.45c-0.104-0.18-0.188-0.309-0.257-0.39l-0.154-0.66
		c-0.069-1.68-0.104-2.859-0.104-3.54c0-0.48,0-1.18,0-2.1c0-0.92,0-1.6,0-2.04c0-0.159,0-0.48,0-0.96c0-0.439,0-0.8,0-1.08
		c0-0.56,0.24-1.28,0.72-2.16c-0.148-0.08-0.388-0.3-0.72-0.66c0-0.279,0-0.72,0-1.32c0-0.6,0-1.059,0-1.38
		c0-0.84,0.04-2.259,0.119-4.26c0.159-0.399,0.615-0.6,1.37-0.6c1.15,0,1.924,0.261,2.321,0.78c0.516-0.519,0.993-0.78,1.43-0.78
		c0.04,0,0.118,0,0.238,0c0.159,0,0.297,0,0.417,0c0.238,0,0.436,0,0.595,0c0.516,0,0.933,0.22,1.25,0.66v3.6l-0.72,0.84
		c0.392,0.28,0.632,0.66,0.72,1.14c0,1.601,0,3.921,0,6.96c0,2.92,0,5.08,0,6.48l-0.257,0.48c-0.258,0.16-0.473,0.28-0.643,0.36
		c0.385,0.201,0.685,0.561,0.9,1.08v7.56l-0.54,0.78L41.58,204.462z M55.764,201.222c0.344,2.561,0.517,4.3,0.517,5.22
		c0,2.04-0.66,3.5-1.98,4.38c0.2,0.28,0.3,0.54,0.3,0.78c0-0.12-0.16,0.52-0.48,1.92c-1.761,1.68-3.741,2.76-5.94,3.24
		c-0.12-0.08-0.42-0.24-0.9-0.48c-0.201,0.441-0.9,0.66-2.1,0.66c-0.561,0-1,0-1.32,0h0.24c-0.36-0.118-0.54-0.295-0.54-0.532
		v-0.177l0.068-2.303c0.634-0.236,0.952-0.433,0.952-0.591l-0.78-0.767c-0.161-0.866-0.24-1.457-0.24-1.772
		c0-0.433,0.02-0.768,0.061-1.004c0.323-0.236,0.566-0.354,0.729-0.354h0.485c0.891-0.08,1.64-0.36,2.248-0.84
		c0.971-1.28,1.458-2.68,1.458-4.2l1.02-0.66c-0.4-0.039-0.741-0.5-1.02-1.38c-0.36-1.239-0.78-2.18-1.26-2.82
		c-0.76-0.64-1.601-0.96-2.52-0.96c-0.36,0-0.621,0-0.78,0l-0.24-0.417v-2.381c0-0.396,0.2-0.654,0.6-0.773
		c-0.081-0.158-0.24-0.396-0.48-0.714c-0.081-0.873-0.12-1.488-0.12-1.845v-0.536c0.12-0.397,0.32-0.655,0.6-0.773h0.42
		c1.44,0,2.4-0.517,2.88-1.55c0.04-0.119,0.219-0.795,0.54-2.028c0.2-0.714,0.54-1.211,1.02-1.491l-0.18-0.298
		c-0.4-0.079-0.82-0.686-1.26-1.818c-0.441-1.133-1.121-1.878-2.04-2.236c-0.201,0-0.46,0-0.78,0c-0.8,0-1.2-0.339-1.2-1.02v-0.54
		c0-0.84,0.24-1.58,0.72-2.22c-0.6-0.6-0.9-1.359-0.9-2.28c0-0.36,0.02-0.64,0.06-0.84c0.36-0.56,0.84-0.84,1.44-0.84
		c0.24,0,0.42,0.021,0.54,0.06c2.6,0.28,4.28,0.54,5.04,0.78c1.119,0.321,1.68,0.82,1.68,1.5c0,0.24-0.06,0.521-0.18,0.84h0.42
		c0.52,0,0.92,0.021,1.2,0.06c1.239,2.121,1.86,4.44,1.86,6.96v0.36c-0.4,0.32-0.681,0.621-0.84,0.9
		c0.399,0.28,0.68,0.621,0.84,1.02c-0.12,3.4-1.06,5.781-2.82,7.14c-0.4,0.201-1,0.38-1.8,0.54c-0.44,0.12-0.681,0.3-0.72,0.54
		c0.039,0.16,0.2,0.28,0.48,0.36c1.239,0.28,2.16,0.64,2.76,1.08c0.72,0.561,1.34,1.48,1.86,2.76v0.18c0,0.561-0.261,1.02-0.78,1.38
		C55.03,200.603,55.418,200.862,55.764,201.222z"/>
	<path fill="#FFFFFF" d="M69.54,217.123c-0.161,0.279-0.34,0.42-0.54,0.42c-1.36,0-2.601-0.302-3.72-0.905
		c-1.12-0.603-1.68-1.195-1.68-1.778c0-0.042,0.039-0.188,0.12-0.437h-0.18c-0.48,0-0.84-0.159-1.08-0.48
		c-1-1.28-1.72-2.859-2.16-4.74c-0.081-0.159-0.16-0.5-0.24-1.02l0.48-0.54c-0.6-0.44-0.96-1.14-1.08-2.1
		c-0.081-1.16-0.16-2.319-0.24-3.48v-2.28c0-0.799,0.26-1.459,0.78-1.98l-0.54-0.3c-0.16-2.84-0.24-5.199-0.24-7.08
		c0-3.68,0.36-5.78,1.08-6.3c-0.201-0.24-0.3-0.52-0.3-0.84c0-2.72,1.479-5.479,4.44-8.28c0.24-0.08,0.42-0.12,0.54-0.12
		c0.159,0,0.36,0.041,0.6,0.12v-0.444c0.84-0.703,1.879-1.056,3.12-1.056c0.48,0,0.72,0.38,0.72,1.14c0.08,0.48,0.12,0.82,0.12,1.02
		c0,0.64-0.141,1.24-0.42,1.8c-0.12,0.041-0.18,0.1-0.18,0.18c0.36,0.44,0.54,0.8,0.54,1.08c0,1.641-0.18,2.561-0.54,2.76
		c-0.76,0.64-1.36,2.46-1.8,5.46c-0.161,0.16-0.4,0.36-0.72,0.6c0.279,0.32,0.54,0.7,0.78,1.14l-0.24,5.82v4.02l0.18,1.74
		c-0.12,0.24-0.18,0.54-0.18,0.9c0,0.24,0.06,0.5,0.18,0.78c0,0.28,0,0.46,0,0.54c0,0.64-0.261,1.14-0.78,1.5
		c0.48,0.321,0.8,0.6,0.96,0.84c0.44,2.88,1.02,4.581,1.74,5.1c0.279,0.12,0.42,0.34,0.42,0.66v3.12l-0.48,0.66l-0.18,0.06
		c0.12,0.12,0.32,0.24,0.6,0.36C69.499,215.823,69.54,216.603,69.54,217.123z M81.839,189.103c-0.075,0.84-0.15,1.67-0.225,2.49
		c-0.075,0.82-0.3,1.391-0.675,1.71l0.54,0.36c0.24,2.92,0.36,5.24,0.36,6.96c0,3.88-0.4,6-1.2,6.36
		c0.159,0.201,0.279,0.78,0.36,1.74c-0.48,3-1.9,5.421-4.26,7.26c-0.28,0.12-0.54,0.18-0.78,0.18c-0.201,0-0.34-0.02-0.42-0.06v0.48
		c-1.401,0.639-2.361,0.96-2.88,0.96c-0.6,0-0.94-0.36-1.02-1.08c0-0.159,0-0.36,0-0.6c-0.041-0.24-0.06-0.399-0.06-0.48
		c0-0.12,0.02-0.279,0.06-0.48c0-0.24,0-0.399,0-0.48c0.039-0.04,0.319-0.26,0.84-0.66c-0.561,0-0.84-0.339-0.84-1.02v-1.92
		c0-0.399,0.12-0.72,0.36-0.96c0.879-0.68,1.56-2.54,2.04-5.58c0.159-0.159,0.42-0.36,0.78-0.6c-0.4-0.399-0.681-0.76-0.84-1.08
		l0.12-5.76v-2.58v-3.24c0-0.279,0-0.66,0-1.14c0-0.2,0-0.42,0-0.66c0-0.24,0-0.379,0-0.42c0-0.68,0.24-1.2,0.72-1.56
		c-0.549-0.159-0.903-0.6-1.06-1.32c-0.158-0.879-0.334-1.779-0.53-2.7c-0.118-0.799-0.53-1.5-1.237-2.1
		c-0.236,0-0.353-0.12-0.353-0.36v-3.36c0.279-0.24,0.48-0.48,0.6-0.72c-0.081-0.16-0.18-0.24-0.3-0.24h-0.12
		c-0.12-0.6-0.18-1.179-0.18-1.74v-0.6c0.12-0.32,0.3-0.52,0.54-0.6c2.08,0.201,3.86,0.92,5.34,2.16c0.08,0.16,0.12,0.32,0.12,0.48
		c0,0.081-0.041,0.24-0.12,0.48h0.18c0.44,0,0.86,0.16,1.26,0.48c0.919,1.48,1.56,3.12,1.92,4.92c0.08,0.4,0.12,0.741,0.12,1.02
		c-0.041,0.04-0.201,0.22-0.48,0.54c0.611,0.4,0.956,1.06,1.033,1.98C81.667,186.723,81.763,187.902,81.839,189.103z"/>
	<path fill="#FFFFFF" d="M95.819,217.123c-0.16,0.279-0.34,0.42-0.54,0.42c-1.36,0-2.601-0.302-3.72-0.905
		c-1.12-0.603-1.68-1.195-1.68-1.778c0-0.042,0.039-0.188,0.12-0.437h-0.18c-0.48,0-0.84-0.159-1.08-0.48
		c-1-1.28-1.72-2.859-2.16-4.74c-0.081-0.159-0.16-0.5-0.24-1.02l0.48-0.54c-0.6-0.44-0.96-1.14-1.08-2.1
		c-0.081-1.16-0.16-2.319-0.24-3.48v-2.28c0-0.799,0.26-1.459,0.78-1.98l-0.54-0.3c-0.16-2.84-0.24-5.199-0.24-7.08
		c0-3.68,0.36-5.78,1.08-6.3c-0.201-0.24-0.3-0.52-0.3-0.84c0-2.72,1.479-5.479,4.44-8.28c0.24-0.08,0.42-0.12,0.54-0.12
		c0.159,0,0.36,0.041,0.6,0.12v-0.444c0.84-0.703,1.88-1.056,3.12-1.056c0.479,0,0.72,0.38,0.72,1.14
		c0.079,0.48,0.12,0.82,0.12,1.02c0,0.64-0.141,1.24-0.42,1.8c-0.12,0.041-0.18,0.1-0.18,0.18c0.359,0.44,0.539,0.8,0.539,1.08
		c0,1.641-0.18,2.561-0.539,2.76c-0.761,0.64-1.361,2.46-1.801,5.46c-0.16,0.16-0.4,0.36-0.72,0.6c0.279,0.32,0.54,0.7,0.78,1.14
		l-0.24,5.82v4.02l0.18,1.74c-0.119,0.24-0.18,0.54-0.18,0.9c0,0.24,0.061,0.5,0.18,0.78c0,0.28,0,0.46,0,0.54
		c0,0.64-0.26,1.14-0.78,1.5c0.48,0.321,0.799,0.6,0.959,0.84c0.44,2.88,1.021,4.581,1.74,5.1c0.279,0.12,0.42,0.34,0.42,0.66v3.12
		l-0.479,0.66l-0.181,0.06c0.121,0.12,0.32,0.24,0.601,0.36C95.778,215.823,95.819,216.603,95.819,217.123z M108.119,189.103
		c-0.075,0.84-0.149,1.67-0.226,2.49c-0.074,0.82-0.299,1.391-0.674,1.71l0.539,0.36c0.24,2.92,0.36,5.24,0.36,6.96
		c0,3.88-0.4,6-1.2,6.36c0.16,0.201,0.279,0.78,0.36,1.74c-0.479,3-1.9,5.421-4.261,7.26c-0.279,0.12-0.539,0.18-0.779,0.18
		c-0.201,0-0.34-0.02-0.42-0.06v0.48c-1.4,0.639-2.361,0.96-2.88,0.96c-0.601,0-0.94-0.36-1.021-1.08c0-0.159,0-0.36,0-0.6
		c-0.04-0.24-0.06-0.399-0.06-0.48c0-0.12,0.02-0.279,0.06-0.48c0-0.24,0-0.399,0-0.48c0.039-0.04,0.32-0.26,0.84-0.66
		c-0.561,0-0.84-0.339-0.84-1.02v-1.92c0-0.399,0.12-0.72,0.36-0.96c0.88-0.68,1.56-2.54,2.04-5.58c0.159-0.159,0.42-0.36,0.779-0.6
		c-0.4-0.399-0.68-0.76-0.84-1.08l0.121-5.76v-2.58v-3.24c0-0.279,0-0.66,0-1.14c0-0.2,0-0.42,0-0.66c0-0.24,0-0.379,0-0.42
		c0-0.68,0.239-1.2,0.719-1.56c-0.549-0.159-0.902-0.6-1.06-1.32c-0.157-0.879-0.334-1.779-0.53-2.7
		c-0.117-0.799-0.529-1.5-1.236-2.1c-0.236,0-0.354-0.12-0.354-0.36v-3.36c0.279-0.24,0.48-0.48,0.6-0.72
		c-0.08-0.16-0.18-0.24-0.299-0.24h-0.121c-0.119-0.6-0.18-1.179-0.18-1.74v-0.6c0.12-0.32,0.301-0.52,0.54-0.6
		c2.079,0.201,3.86,0.92,5.341,2.16c0.079,0.16,0.119,0.32,0.119,0.48c0,0.081-0.04,0.24-0.119,0.48h0.18
		c0.439,0,0.859,0.16,1.26,0.48c0.92,1.48,1.561,3.12,1.92,4.92c0.08,0.4,0.12,0.741,0.12,1.02c-0.04,0.04-0.2,0.22-0.479,0.54
		c0.611,0.4,0.955,1.06,1.033,1.98C107.946,186.723,108.042,187.902,108.119,189.103z"/>
	<path fill="#FFFFFF" d="M114.42,181.002c0,0.24-0.098,0.44-0.291,0.6h-0.639c-0.93,0-1.492-0.16-1.686-0.48
		c-0.35,0.32-0.756,0.48-1.221,0.48h-0.291c-0.116,0-0.271,0-0.465,0c-0.621,0-0.93-0.42-0.93-1.26c0-0.639,0.18-1.399,0.539-2.28
		c-0.359-0.36-0.539-0.819-0.539-1.38c0-0.04,0-0.22,0-0.54c0-0.36,0-0.7,0-1.02v-0.66l0.24-0.42c0.158-0.04,0.379-0.06,0.659-0.06
		c0.64,0,1.239,0.22,1.8,0.66l0.541-0.66h0.239c0.2,0,0.429,0,0.69,0c0.26,0,0.409,0,0.449,0c0.439,0,0.76,0.22,0.961,0.66v1.68
		c0,0.561-0.16,1-0.48,1.32c0.32,0.4,0.48,0.9,0.48,1.5v0.6C114.439,180.183,114.42,180.603,114.42,181.002z M123.418,213.277
		c0.439,0.641,0.66,1.263,0.66,1.863c0,0.722-0.09,1.212-0.27,1.473s-0.611,0.39-1.291,0.39c-0.52,0-0.959-0.021-1.32-0.06
		c-0.398-0.2-0.699-0.439-0.898-0.72c-0.762,0.521-1.301,0.78-1.621,0.78h-0.84c-1.08,0-1.62-0.34-1.62-1.022v-8.291
		c0.13-0.881,0.409-1.663,0.841-2.343c-0.389-0.081-0.668-0.261-0.841-0.541v-10.274c0.049-0.28,0.269-0.481,0.66-0.601
		c-0.44-0.441-0.66-0.841-0.66-1.202c0-0.841,0-2.032,0-3.575c0-1.542,0-2.654,0-3.334c0-0.561-0.03-1.292-0.09-2.194
		c-0.06-0.901-0.09-1.532-0.09-1.892c0-2.363,0.399-3.625,1.2-3.785l-0.271-0.18c-0.183-0.12-0.408-0.34-0.68-0.661
		c-0.047-0.24-0.069-0.601-0.069-1.082c0-1.322,0.264-1.983,0.792-1.983c0.122,0,0.285-0.02,0.488-0.06c0.243,0,0.406,0,0.487,0
		c1.138,0,1.868,0.321,2.194,0.96c0.732-0.639,1.219-0.96,1.463-0.96c1.381,0,2.133,0.181,2.254,0.541c0,0.16,0.02,0.4,0.062,0.721
		c0,0.281,0,0.481,0,0.601c0,1.242-0.281,1.983-0.84,2.223c0.279,0.12,0.539,0.301,0.779,0.541c0.039,0.521,0.061,1.282,0.061,2.283
		c0,1.843-0.102,3.906-0.301,6.188c-0.201,0.482-0.42,0.822-0.66,1.022c0.383,0.081,0.703,0.321,0.961,0.721v10.034
		c-0.088,0.081-0.217,0.211-0.389,0.391s-0.322,0.33-0.451,0.45c0.559,0.48,0.84,1.222,0.84,2.224c0,0.12,0,0.361,0,0.721
		c0,0.36,0,0.641,0,0.841v8.712C123.959,212.597,123.778,212.957,123.418,213.277z M131.278,174.466c0,0.041,0,0.162,0,0.363
		c0,0.202,0,0.404,0,0.604c0,0.161,0,0.363,0,0.604c0,0.242,0,0.403,0,0.484c0,0.687-0.199,1.21-0.6,1.573
		c0.4,0.887,0.6,1.572,0.6,2.056c0,0.967-0.359,1.451-1.08,1.451c-0.039,0-0.119,0-0.238,0c-0.121,0-0.211,0-0.271,0
		c-0.059,0-0.129,0-0.209,0s-0.141,0-0.18,0c-0.201,0-0.461-0.16-0.781-0.48c-0.119,0.32-0.6,0.48-1.439,0.48
		s-1.26-0.219-1.26-0.655c0-0.238,0-0.575,0-1.012c-0.041-0.396-0.061-0.674-0.061-0.833c0-0.555,0.199-1.052,0.6-1.489
		c-0.279-0.198-0.459-1.189-0.539-2.977c0.24-0.436,0.559-0.654,0.959-0.654c0.08,0,0.26,0,0.541,0c0.279,0,0.5,0,0.66,0h0.24
		l0.479,0.66c0.561-0.44,1.121-0.66,1.682-0.66c0.279,0,0.498,0.021,0.66,0.061L131.278,174.466z"/>
	<path fill="#FFFFFF" d="M37.169,266.322c-0.041,0.201-0.201,0.501-0.48,0.9c0,0.041,0.06,0.081,0.18,0.12
		c0.24,0.441,0.36,0.921,0.36,1.44c0,0.161-0.021,0.371-0.06,0.63c-0.041,0.26-0.06,0.43-0.06,0.51c0,0.081,0.02,0.201,0.06,0.36
		c0,0.201,0,0.36,0,0.48c0,0.12-0.101,0.28-0.3,0.48c-0.32,0.08-0.54,0.12-0.66,0.12c-1.24,0-2.061-0.4-2.46-1.2l-0.18-0.36
		c-0.12,0.041-0.321,0.06-0.6,0.06c-0.24,0-0.42-0.02-0.54-0.06c-2.8-2.479-4.2-5.16-4.2-8.04c0-0.24,0.099-0.519,0.3-0.84
		c-0.681-0.439-1.02-2.52-1.02-6.24c0-1,0.06-3.36,0.18-7.08c0.08-0.08,0.279-0.2,0.6-0.36c-0.521-0.519-0.78-1.16-0.78-1.92v-2.28
		c0-1.92,0.04-3.12,0.12-3.6c0.12-0.92,0.5-1.56,1.14-1.92c-0.12-0.16-0.261-0.339-0.42-0.54c0-0.399,0.06-0.74,0.18-1.02
		c0.279-1.68,0.92-3.26,1.92-4.74c1.52-1.119,2.34-1.7,2.46-1.74c-0.12,0.16-0.52,0.54-1.2,1.14c-0.041-0.08-0.06-0.22-0.06-0.42
		c0-0.199,0.02-0.36,0.06-0.48c1.959-1.399,3.399-2.1,4.32-2.1c0.72,0,1.1,0.28,1.14,0.84c0,0.48-0.041,1.12-0.12,1.92l-0.6,0.6
		c0.2,0.12,0.44,0.34,0.72,0.66l-0.06,3.42c-0.321,0.48-0.76,1.66-1.32,3.54c-0.161,0.44-0.24,0.96-0.24,1.56v0.48
		c-0.36,0.28-0.76,0.46-1.2,0.54c0.72,0.28,1.08,1.12,1.08,2.52c0,0.12-0.06,0.581-0.18,1.38v2.4v0.84l0.18,7.98
		c-0.425,0.641-0.765,1.101-1.02,1.38c0.399,0.24,0.74,0.44,1.02,0.6c0.44,2.92,0.939,4.62,1.5,5.1c0.16,0.6,0.24,1.341,0.24,2.22
		V266.322z M47.549,237.163c0.72,0.32,1.08,1.641,1.08,3.96c0,0.88-0.7,1.32-2.1,1.32c-0.48,0-0.94-0.159-1.38-0.48
		c-0.081,0.041-0.22,0.16-0.42,0.36h-3.24c-0.4-0.039-0.6-0.511-0.6-1.417c0-0.118,0-0.315,0-0.59c0-0.276,0-0.492,0-0.65
		c0.262-0.393,0.502-0.728,0.72-1.003h-0.06c-0.321,0-0.58-0.26-0.78-0.78c-0.041-0.12-0.28-0.879-0.72-2.28
		c-0.561-0.64-0.84-1.28-0.84-1.92c0-0.48,0.02-1.02,0.06-1.62c0.159-0.32,0.42-0.54,0.78-0.66c-0.561-0.24-0.84-0.78-0.84-1.62
		v-0.6c0-1.16,0.279-1.74,0.84-1.74c0.24,0,0.5,0.06,0.78,0.18c0.96,0,1.86,0.38,2.7,1.14l0.12,0.36c0.2-0.12,0.339-0.18,0.42-0.18
		c0.56,0,1.12,0.46,1.68,1.38c0.08,0.201,0.279,0.42,0.6,0.66c0.96,1.6,1.56,3.321,1.8,5.16
		C48.109,236.463,47.909,236.802,47.549,237.163z M48.869,256.183v1.08c0,1.881-0.26,3.54-0.78,4.98l-0.54,0.54
		c0.399,0.12,0.6,0.36,0.6,0.72c0,0.44-0.16,1.14-0.48,2.1c-1.44,3.081-2.721,4.62-3.84,4.62c-0.24,0-0.48-0.06-0.72-0.18
		c-0.12,0.6-0.43,1-0.93,1.2c-0.5,0.2-1.07,0.3-1.71,0.3c-0.561,0-0.96-0.12-1.2-0.36l0.06-2.28l0.96-1.08
		c-0.72-0.56-1.08-1.14-1.08-1.74c0-0.08,0.02-0.22,0.06-0.42c0-0.16,0-0.28,0-0.36v-0.66c0-0.16,0.099-0.339,0.3-0.54
		c0.48-0.32,0.87-1,1.17-2.04c0.3-1.04,0.65-1.779,1.05-2.22c-0.176-0.08-0.397-0.32-0.66-0.72v-1.08c0-1.52,0.262-2.28,0.787-2.28
		h0.06c0.282-0.039,0.685-0.06,1.209-0.06c0.564,0,0.968,0.021,1.209,0.06l0.787,0.42l0.363,0.36c0.161-0.44,0.503-0.72,1.028-0.84
		c0.121,0,0.282,0,0.483,0c0.202,0.041,0.343,0.06,0.424,0.06c0.12,0,0.281-0.02,0.484-0.06c0.242,0,0.403,0,0.484,0
		C48.647,255.702,48.789,255.863,48.869,256.183z"/>
	<path fill="#FFFFFF" d="M63.81,260.442v0.18c0,0.081-0.041,0.201-0.12,0.36c-0.28,0.201-0.561,0.3-0.84,0.3h-0.18
		c-0.52,0-1.18-0.02-1.98-0.06c-0.801,0-1.341,0-1.62,0l-0.36,0.36c-0.24,1.48-0.54,2.84-0.9,4.08c-0.24,0.4-0.54,0.68-0.9,0.84
		c0.08,0.081,0.189,0.21,0.33,0.39c0.14,0.18,0.23,0.33,0.27,0.45c-0.2,2.2-0.48,3.351-0.84,3.45c-0.36,0.1-0.92,0.15-1.68,0.15
		h-0.78c-0.28-0.159-0.561-0.399-0.84-0.72l-0.42,0.42l-0.54,0.3h-0.78c-0.48,0-1.161-0.04-2.04-0.12
		c-0.16-0.24-0.24-0.459-0.24-0.66v-0.12c0.639-2.439,1.16-4.88,1.56-7.32c0.08-0.48,0.319-0.859,0.72-1.14
		c0-0.04,0.02-0.12,0.06-0.24c0-0.08,0-0.14,0-0.18c0-0.16-0.04-0.36-0.12-0.6c-0.04-0.04-0.06-0.14-0.06-0.3
		c0-0.24,0.22-1.26,0.66-3.06c0.52-2.12,0.9-4.179,1.14-6.18c0.159-0.36,0.439-0.74,0.84-1.14c0-0.08-0.081-0.339-0.24-0.78
		c0.96-7.24,1.819-10.86,2.58-10.86h0.06c-0.04-0.12-0.11-0.279-0.21-0.48c-0.1-0.2-0.17-0.339-0.21-0.42
		c0.279-1.52,0.74-3.759,1.38-6.72c0-0.64,0.14-0.96,0.42-0.96h0.18c0.16,0.16,0.26,0.5,0.3,1.02c0.12,1.36,0.41,2.83,0.87,4.41
		c0.459,1.581,0.69,2.53,0.69,2.85c0,0.561-0.201,1.12-0.6,1.68c0.639,0.4,0.96,0.7,0.96,0.9v0.12c0,0.88,0.169,2,0.51,3.36
		c0.339,1.36,0.51,2.28,0.51,2.76c0,0.081-0.22,1.14-0.66,3.18c-0.16,0.28-0.4,0.54-0.72,0.78l0.3,0.42
		c0.12,0.16,0.18,0.4,0.18,0.72c0,0.16-0.12,0.96-0.36,2.4c0.12,0.12,0.26,0.18,0.42,0.18h0.18c0.08,0,0.18,0,0.3,0
		c0.12,0.041,0.2,0.06,0.24,0.06c0.08,0,0.159-0.02,0.24-0.06c0.12,0,0.199,0,0.24,0c0.759,0.081,1.22,1.061,1.38,2.94
		c-0.16,0.16-0.32,0.4-0.48,0.72l0.66,0.6C63.509,259.183,63.689,259.763,63.81,260.442z M75.66,267.792
		c0.14,0.7,0.21,1.07,0.21,1.11c0,0.6-0.261,1.221-0.78,1.86c-0.48,0.12-0.96,0.18-1.44,0.18c-0.36,0-0.64-0.02-0.84-0.06
		c-0.321-0.159-0.581-0.339-0.78-0.54c-0.32,0.4-0.621,0.6-0.9,0.6c-0.12,0-0.43-0.02-0.93-0.059c-0.501-0.04-0.951-0.06-1.35-0.06
		c-0.161-0.159-0.381-0.338-0.66-0.537l-0.18-0.716l-1.98-9.907c0-0.039,0-0.098,0-0.179c-0.04-0.079-0.06-0.139-0.06-0.179
		c0-0.477,0.219-0.895,0.66-1.252c-0.682-0.119-1.065-0.378-1.149-0.776l-1.57-8.77l0.26-1.201c-0.48-0.24-1.12-2.922-1.92-8.047
		v-0.12c0-0.12,0.04-0.26,0.12-0.42c0.08-0.16,0.12-0.26,0.12-0.301c0-0.2-0.17-0.36-0.51-0.48l-0.131-0.658
		c-0.244-1.439-0.792-4.178-1.644-8.215c-0.037-0.08-0.055-0.18-0.055-0.3c0-0.44,0.279-0.661,0.84-0.661c0.04,0,0.28,0,0.72,0
		c0.48,0.04,0.939,0.06,1.38,0.06c0.44,0,0.759,0.2,0.96,0.6c0.16-0.27,0.339-0.448,0.54-0.532c0.2-0.084,0.52-0.127,0.96-0.127
		c0.8,0,1.5,0.208,2.1,0.623c0.16,0.605,0.3,1.078,0.42,1.417c0.279,1.32,0.8,3.92,1.56,7.8c-0.12,0.521-0.3,0.92-0.54,1.2
		c0.12,0.28,0.261,0.44,0.421,0.48c0.562,1.041,0.943,2.02,1.144,2.939c1.083,5.52,1.625,8.5,1.625,8.939
		c0,0.201-0.021,0.341-0.062,0.421l-0.368,1.082c0.553,0.201,0.889,0.561,1.008,1.082c0.643,3.319,1.287,6.539,1.931,9.657
		l-0.299,0.78c0.36,0.201,0.609,0.621,0.75,1.26C75.379,266.423,75.519,267.093,75.66,267.792z"/>
	<path fill="#FFFFFF" d="M85.289,256.742c-0.04,1.404-0.06,3.992-0.06,7.761c-0.201,0.362-0.42,0.643-0.66,0.843
		c0.279,0.2,0.5,0.441,0.66,0.722c0.039,0.521,0.06,1.283,0.06,2.287c0,1.644-0.13,2.517-0.39,2.617
		c-0.261,0.1-0.591,0.15-0.99,0.15c-0.52,0-0.94-0.022-1.26-0.068c-0.4-0.36-0.76-0.697-1.08-1.012c-0.24,0.72-1.08,1.08-2.52,1.08
		c-0.88,0-1.32-0.421-1.32-1.264v-5.294c0.319-0.32,0.54-0.582,0.66-0.783l-0.48-1.143c-0.081-2.648-0.12-4.713-0.12-6.198v-2.346
		c0.16-0.12,0.399-0.26,0.72-0.421c-0.48-0.842-0.72-1.685-0.72-2.527c0-0.521,0.03-0.913,0.09-1.174
		c0.06-0.26,0.09-0.631,0.09-1.113c0-0.401-0.021-0.902-0.06-1.503c-0.04-0.602-0.06-1.003-0.06-1.204
		c0-1.443,0.22-2.287,0.66-2.527c-0.561-0.4-0.84-2.867-0.84-7.4c0-1.724,0.2-2.747,0.6-3.069c-0.4-0.32-0.6-1.303-0.6-2.947
		c0-1.204,0.099-1.906,0.3-2.106c0.32-0.08,0.56-0.12,0.72-0.12c0.72,0,1.239,0.542,1.56,1.625c0.159,0.562,0.42,2.206,0.78,4.933
		c0.08,0.242,0.12,0.543,0.12,0.903c0,0.482-0.081,0.883-0.24,1.204c1.32,0.922,1.98,3.309,1.98,7.16c0,1.003-0.04,1.785-0.12,2.346
		c0.279,0.041,0.519,0.241,0.72,0.602L85.289,256.742z M100.349,251.982c-0.12,1.6-0.82,5.98-2.1,13.14
		c-0.28,1.521-0.54,3.04-0.78,4.56c-0.24,0.84-0.7,1.26-1.38,1.26c-0.16,0-0.411-0.03-0.75-0.09c-0.341-0.06-0.591-0.09-0.75-0.09
		c-0.561,0-0.84-0.2-0.84-0.6c-0.321,0.2-0.562,0.4-0.72,0.6c-0.64,0.12-1.2,0.18-1.68,0.18c-0.88,0-1.42-0.48-1.62-1.44
		c-0.28-1.719-1.041-6.08-2.28-13.08c0.32-0.24,0.48-0.48,0.48-0.72c0-0.159-0.261-0.579-0.78-1.26l-1.44-7.2
		c0.039-0.759,0.3-1.459,0.78-2.1c-0.44-0.24-0.78-0.56-1.02-0.96c-1.08-3.8-1.62-6.36-1.62-7.68c0-0.279,0.08-0.52,0.24-0.72
		c-0.4,0-0.78-0.63-1.14-1.89c-0.36-1.26-0.54-2.93-0.54-5.01c0-0.6,0.279-0.9,0.84-0.9c0.72,0,1.64,0.321,2.76,0.96
		c0.68-0.639,1.5-0.96,2.46-0.96h0.54c0.24,0.121,0.48,0.943,0.72,2.467c0.439,2.97,0.66,4.235,0.66,3.793
		c0,0.441-0.141,0.943-0.42,1.504c0.44,0.362,0.74,0.923,0.9,1.686c0.92,4.093,1.38,6.562,1.38,7.404
		c0,0.883-0.261,1.445-0.78,1.686c0.92,0.482,1.38,1.585,1.38,3.31c0,0.924,0.06,1.786,0.18,2.588l0.18,12.28
		c0.146,0.201,0.33,0.362,0.551,0.482c0.512-0.16,0.77-1.26,0.77-3.3c0-0.759,0-1.62,0-2.58s0-1.539,0-1.74
		c0-4.08,0.18-7.4,0.539-9.96c0.32-2.28,0.68-3.42,1.08-3.42c-0.16-0.32-0.24-0.7-0.24-1.14c0-0.44,0.1-1.06,0.301-1.86
		c0.279-1.2,0.449-1.99,0.51-2.37c0.061-0.38,0.129-0.91,0.21-1.59c0-0.439,0.12-0.9,0.36-1.38l0.42-0.42
		c-0.12-0.32-0.18-0.639-0.18-0.96c0-0.36,0.109-1.01,0.33-1.95c0.219-0.939,0.33-1.729,0.33-2.37v-0.24
		c0-0.759,0.279-1.34,0.84-1.74h0.119c0.961,0,1.44,0.621,1.44,1.86c0,0.64-0.04,1.521-0.12,2.64c-0.08,1.12-0.12,1.92-0.12,2.4
		c0,0.36,0,0.84,0,1.44s0,1,0,1.2c0,0.96-0.28,1.84-0.84,2.64c0.319,0.201,0.54,0.581,0.66,1.14l0.18,1.98l-0.18,0.12
		c0.039,0.84,0.079,1.82,0.12,2.94c0.039,0.92,0.06,1.48,0.06,1.68c0,1.281-0.28,2.301-0.84,3.06
		C99.909,251.382,100.189,251.623,100.349,251.982z M109.11,237.163c0.639,0.2,0.959,0.8,0.959,1.8c0,0.28-0.06,1.09-0.18,2.43
		c-0.119,1.34-0.18,2.53-0.18,3.57c0,0.84,0,1.48,0,1.92l-0.42,0.78c0.52,0.4,0.779,1.54,0.779,3.42c0,1.56-0.16,3.4-0.479,5.52
		c-0.321,0.16-0.479,0.44-0.479,0.84v0.18c0.398,0.72,0.6,1.701,0.6,2.94c0,0.081,0,0.32,0,0.72c0,0.4,0,0.76,0,1.08
		c0,0.641,0,1.14,0,1.5v6.3c0,0.64-0.217,0.96-0.65,0.96c-0.078,0-0.207-0.03-0.384-0.09s-0.345-0.09-0.501-0.09
		c-0.04,0-0.139,0-0.296,0c-0.118,0-0.217,0-0.296,0c-0.354,0-0.787-0.219-1.299-0.66c-0.078,0.044-0.188,0.121-0.325,0.231
		c-0.138,0.11-0.245,0.209-0.325,0.297c-0.708,0.088-1.16,0.132-1.357,0.132c-1.418,0-2.127-0.801-2.127-2.404
		c0-0.159,0.03-0.72,0.09-1.682c0.061-0.961,0.11-1.883,0.15-2.764l-0.24-0.12l0.068-5.708c0-0.801,0.337-1.402,1.012-1.803
		c-0.404-0.24-0.675-0.54-0.81-0.901c-0.181-1.122-0.271-2.363-0.271-3.725v-1.202c0-1.361,0-2.683,0-3.966c0-1.281,0-1.863,0-1.743
		c0-0.48,0.1-0.92,0.301-1.322c0.199-0.4,0.3-0.621,0.3-0.661v-0.12c-0.4-2.042-0.601-4.045-0.601-6.009
		c0-1.361,0.2-2.203,0.601-2.523c-0.4-1.682-0.601-3.004-0.601-3.966c0-0.84,0.079-1.4,0.238-1.682
		c0.238-0.441,0.734-0.661,1.488-0.661c0.158,0,0.674,0.04,1.547,0.12l0.715,0.54c0.676-0.44,1.35-0.66,2.024-0.66
		c0.356,0,0.714,0.06,1.071,0.18c0.238,0.2,0.396,0.36,0.477,0.48c0,1.6,0,2.78,0,3.54c0,1.24-0.033,2.42-0.101,3.54
		C109.575,236.202,109.409,236.683,109.11,237.163z"/>
	<path fill="#FFFFFF" d="M122.969,265.482c0-0.04,0-0.08,0-0.12v0.059c0,1.145,0,1.993,0,2.545v1.775c0,0.632-0.201,1.032-0.604,1.2
		c-0.203,0-0.484,0-0.848,0c-0.281,0-0.584,0-0.906,0s-0.523,0-0.605,0c-0.686,0-1.129-0.26-1.33-0.78
		c-0.283,0.52-0.746,0.78-1.391,0.78h-1.633c-0.283,0-0.424-0.22-0.424-0.662v-0.12c0-0.201,0-0.481,0-0.843c0-0.36,0-0.621,0-0.782
		c0-0.722,0.043-1.544,0.129-2.467c0.043-0.44,0.3-0.721,0.771-0.842c-0.086-0.201-0.236-0.421-0.45-0.662
		c-0.3-1.403-0.45-2.947-0.45-4.633v-1.384c0-0.12,0-0.661,0-1.625c0-0.962,0-1.845,0-2.647v-0.842c0-2.286,0.301-3.57,0.9-3.851
		c-0.369-0.16-0.67-0.441-0.9-0.842v-11.974c0-0.44,0.26-0.842,0.78-1.203l-0.78-0.783v-6.257c0.202-0.361,0.625-0.542,1.271-0.542
		h0.847c0.887,0,1.492,0.28,1.814,0.84c0.281-0.344,0.664-0.581,1.148-0.71c0.725-0.086,1.17-0.129,1.33-0.129
		c0.686,0,1.109,0.201,1.27,0.601c0.041,0.561,0.061,1.482,0.061,2.765l-0.719,0.721c0.479,0.481,0.719,1.223,0.719,2.224
		c0,3.967-0.018,8.734-0.055,14.303l-0.166,0.601c-0.223,0.241-0.389,0.542-0.498,0.902c0.439,0.32,0.68,0.701,0.719,1.142v10.517
		c0,0.361-0.221,0.881-0.66,1.562c0.439,0.521,0.66,1.162,0.66,1.923V265.482z M136.469,242.623c-0.473,5.121-1.336,7.68-2.594,7.68
		c-0.197,0-0.451-0.06-0.766-0.18c0.199,0.72,0.299,1.101,0.299,1.14c0,0.641-0.561,1.221-1.68,1.74c-1.24,0.6-2.84,0.92-4.799,0.96
		c-0.121,0.041-0.281,0.06-0.48,0.06c-0.6,0-1.08-0.279-1.439-0.84c0.039-0.56,0.078-1.38,0.119-2.46c0.32-0.2,0.619-0.439,0.9-0.72
		c-0.52-0.24-0.84-0.64-0.961-1.2l-0.059-1.32c0-0.44,0.18-0.74,0.539-0.9l1.561-0.48c0.799-0.96,1.34-2.14,1.619-3.54
		c0.201-1.04,0.461-1.58,0.781-1.62c-0.412-0.159-0.68-0.5-0.803-1.02c0-1.68-0.719-3.08-2.156-4.2h-0.246
		c-0.865,0-1.295-0.42-1.295-1.26v-1.32c0.045-0.52,0.385-0.9,1.02-1.14c-0.213-0.2-0.531-0.459-0.957-0.78l-0.062-2.4
		c0.357-0.56,0.812-0.84,1.369-0.84c0.238,0,0.418,0,0.537,0h0.535c2.145,0,4.012,0.72,5.6,2.16c0.238,0.28,0.357,0.561,0.357,0.84
		c0,0.201,0,0.4,0,0.6c0.078,0,0.195,0,0.354,0c1.725,0,2.588,2.661,2.588,7.98v0.84c-0.16,0.321-0.42,0.66-0.781,1.02h0.113
		C135.907,241.422,136.168,241.823,136.469,242.623z"/>
</g>
<g>
	<path d="M66.335,160.157c0,0.081,0.021,0.221,0.062,0.422c0,0.201,0,0.362,0,0.482c0,0.482-0.06,0.963-0.18,1.445
		c-0.24,0.161-0.48,0.241-0.72,0.241h-0.18c-0.72,0-1.541-0.187-2.46-0.56c-0.28-0.166-0.42-0.457-0.42-0.872v-0.249
		c-0.329,0.081-0.576,0.12-0.739,0.12c-0.534,0-1.089-0.24-1.664-0.72c-0.821-0.919-1.417-1.939-1.786-3.06
		c-0.288-0.6-0.431-1.239-0.431-1.92v-0.42c0.23-0.36,0.53-0.699,0.9-1.02l-1.02-0.9c-0.161-2.08-0.24-3.6-0.24-4.56v-0.96
		c0.08-0.36,0.279-0.54,0.6-0.54h0.18c0.08,0,0.2-0.02,0.36-0.06c0.159,0,0.26,0,0.3,0c0.92,0,1.58,0.24,1.98,0.72l0.36-0.36
		l0.48-0.18c0.12,0,0.279-0.02,0.48-0.06c0.24,0,0.399,0,0.48,0c0.56,0,1.08,0.06,1.56,0.18c0.12-0.04,0.3-0.06,0.54-0.06
		c0.279,0,0.42,0.081,0.42,0.241v2.832c-0.161,0.241-0.36,0.481-0.6,0.723c0.399,0.401,0.669,1.044,0.81,1.927
		c0.14,0.883,0.369,1.486,0.69,1.807c0.159,0.121,0.24,0.302,0.24,0.542c0,0.042,0,0.182,0,0.422
		c-0.041,0.242-0.06,0.462-0.06,0.663c0,0.121,0.02,0.302,0.06,0.542c0,0.242,0,0.402,0,0.482c0,0.724-0.381,1.306-1.14,1.747
		C65.787,159.395,66.167,159.716,66.335,160.157z M77.318,150.912v0.06c0,0.281-0.48,0.662-1.44,1.142
		c0.96,0.401,1.44,1.122,1.44,2.163c0,1.882-1.56,4.267-4.68,7.15c-0.12,0.041-0.261,0.06-0.42,0.06c-0.12,0-0.48-0.2-1.08-0.6
		l-0.42,1.26c-0.48,0.399-1.061,0.6-1.74,0.6c-0.36-0.161-0.58-0.46-0.66-0.9c0-0.12,0-0.28,0-0.48c0-0.2,0-0.339,0-0.42
		c0-0.279,0.048-0.66,0.148-1.14c0.494-0.48,0.864-0.819,1.112-1.02c-0.84-0.12-1.26-0.399-1.26-0.84v-2.58
		c0-0.08,0.157-0.29,0.473-0.63c0.315-0.339,0.498-0.709,0.547-1.11c0.075-0.6,0.188-2.06,0.338-4.38l0.622-0.36
		c-0.074-0.08-0.314-0.459-0.72-1.14v-9.9c0.08-0.36,0.279-0.56,0.6-0.6c-0.4-0.36-0.6-1-0.6-1.92c0-0.44,0-1.12,0-2.04
		c0-0.96,0-1.7,0-2.22c0-1.399,0-2.479,0-3.24l0.12-0.42l-0.12-0.06c0.32-0.32,0.58-0.54,0.78-0.66l-0.259-0.18
		c-0.244-0.12-0.399-0.319-0.469-0.6c-0.035-0.639-0.052-1.58-0.052-2.82c0-0.32,0-0.8,0-1.44c0-0.639,0-1.1,0-1.38v-0.18
		c0-0.48,0.221-0.74,0.666-0.78c0.12,0,0.281-0.02,0.484-0.06c0.201,0,0.342,0,0.423,0c1.209,0,1.955,0.3,2.238,0.9
		c0.322-0.6,0.887-0.9,1.693-0.9h0.726c0.926,0,1.43,0.16,1.511,0.481c0,2.323,0,3.886,0,4.687c0,1.362-0.3,2.344-0.9,2.944
		c0.343,0.161,0.622,0.321,0.835,0.481c0,1.042,0.021,2.363,0.065,3.965c0,1.643,0,2.744,0,3.305c0,0.401-0.085,1.482-0.255,3.245
		c-0.17,0.321-0.425,0.642-0.765,0.961c0.467,0.041,0.786,0.281,0.956,0.722c0,1.402,0.021,3.305,0.064,5.708
		C77.318,148.188,77.318,149.911,77.318,150.912z"/>
	<path d="M90.638,155.337V156c0,1.688-0.48,2.671-1.44,2.951c0.879,0.643,1.32,1.467,1.32,2.47c0,0.04,0,0.141,0,0.302
		c-0.04,0.12-0.06,0.22-0.06,0.301c-0.28,0.482-0.64,0.723-1.08,0.723c-0.72,0-1.8-0.228-3.24-0.682
		c-0.16-0.206-0.261-0.433-0.3-0.681l0.06-0.558c-0.16,0.081-0.4,0.12-0.72,0.12c-1.72,0-3-1.86-3.84-5.58
		c-0.161-0.72-0.24-1.22-0.24-1.5c0-0.28,0.219-0.6,0.66-0.96c-0.6-0.159-0.9-0.759-0.9-1.8v-1.86c0-0.56,0.18-0.92,0.54-1.08h2.22
		c0.439,0.24,0.8,0.561,1.08,0.96c0.519-0.68,1.2-1.02,2.04-1.02h1.08c0.519,0,0.78,0.262,0.78,0.783c0,2.169-0.201,3.335-0.6,3.495
		c0.32,0.041,0.58,0.221,0.78,0.542C89.018,154.052,89.638,154.855,90.638,155.337z M102.158,151.407
		c-0.16,0.321-0.42,0.621-0.78,0.9c0.52,0.48,0.78,0.96,0.78,1.44c0,0.12-0.041,0.32-0.121,0.6c-1.011,3.4-2.467,5.72-4.369,6.96
		h-0.121c-0.324,0-0.607-0.3-0.849-0.9v0.12c0,0.6-0.371,1.121-1.11,1.56c-0.741,0.44-1.65,0.66-2.73,0.66
		c-0.24,0-0.36-0.18-0.36-0.54v-0.78c0-0.2,0-0.459,0-0.78c0-0.399,0.055-0.78,0.167-1.14c0.186-0.12,0.39-0.26,0.613-0.42
		c-0.321-0.12-0.531-0.36-0.63-0.72c-0.1-0.36-0.15-0.66-0.15-0.9c0-0.439,0.08-1.14,0.24-2.1c0.999-0.68,1.52-1.64,1.56-2.88
		c0.08-0.56,0.12-0.96,0.12-1.2c0-0.84-0.18-1.58-0.54-2.22v-0.18c0-0.16,0.071-0.3,0.216-0.42l0.145-0.6
		c0-0.16-0.102-0.24-0.302-0.24c-0.081,0-0.181,0.021-0.301,0.06c-0.121,0.04-0.202,0.06-0.242,0.06c-0.161,0-0.322-0.08-0.483-0.24
		c-1.247-1.28-2.674-2.499-4.283-3.66c-0.442-0.399-0.704-0.939-0.785-1.62c-0.161,0.081-0.302,0.12-0.422,0.12
		c-0.442,0-1.287-0.62-2.534-1.86c-0.885-0.879-1.488-1.659-1.81-2.34c0-0.36,0.14-0.62,0.42-0.78c-0.04,0.04-0.1,0.06-0.18,0.06
		c-0.441,0-0.9-0.579-1.38-1.74c-0.48-1.16-0.72-2.439-0.72-3.84c0-0.28,0.109-0.57,0.33-0.87c0.219-0.3,0.33-0.51,0.33-0.63
		c0-0.16-0.16-0.36-0.48-0.6v-0.54c0-1.6,0.26-3.12,0.78-4.56c0.48-1,0.979-1.899,1.5-2.7c0.08,0.041,0.18,0.06,0.3,0.06
		c0.2,0,0.399-0.103,0.6-0.311c0.08-1.203,1.62-2.199,4.62-2.987c0.159-0.042,0.32-0.062,0.48-0.062c0.32,0,0.54,0.123,0.66,0.367
		c0.08,0.489,0.12,0.835,0.12,1.038c0,0.855-0.26,1.629-0.78,2.321l0.66,0.488v2.138c0,0.448-0.281,1.18-0.84,2.198
		c-0.081,0.205-0.201,0.591-0.36,1.161v0.549c0,1.06-0.18,2.2-0.54,3.42l0.122-0.12c0.323,0,0.708,0.3,1.154,0.9
		c0.729,0.88,1.357,1.541,1.884,1.98c1.215,0.76,3.12,2.2,5.713,4.32c0.364,0.36,0.546,0.78,0.546,1.26c0,0.041,0,0.12,0,0.24
		c-0.04,0.081-0.06,0.161-0.06,0.24h0.36c0.48,0,0.859,0.1,1.14,0.3c1.8,2.4,2.7,5.421,2.7,9.06V151.407z M101.738,128.247
		c0,0.64,0.02,1.26,0.06,1.86c0.039,0.6,0.06,0.88,0.06,0.84c0,0.921-0.394,1.38-1.181,1.38c-1.378,0-2.285-0.22-2.718-0.66
		c-0.197,0.44-0.453,0.66-0.768,0.66h-2.245c-0.472,0-0.708-0.24-0.708-0.72c0-0.08,0-0.27,0-0.57c0-0.3,0-0.57,0-0.81
		c0-0.32,0-0.56,0-0.72c0.069-0.12,0.21-0.24,0.42-0.36c-0.152-0.04-0.55-0.8-1.193-2.28c-0.645-0.879-0.967-1.8-0.967-2.76
		c0-0.24,0.036-0.6,0.107-1.08c0.177-0.24,0.461-0.459,0.853-0.66c-0.64-0.8-0.96-1.5-0.96-2.1c0-1.08,0.413-1.62,1.239-1.62
		c1.257,0,2.534,0.381,3.832,1.14c1.14,0.681,1.71,1.26,1.71,1.74c0,0.081-0.07,0.21-0.21,0.39c-0.141,0.18-0.21,0.33-0.21,0.45
		c0,0.04,0.02,0.06,0.06,0.06c0,0.041,0,0.081,0,0.12c0.24-0.08,0.399-0.12,0.48-0.12c0.32,0,0.6,0.12,0.84,0.36
		c0.759,1.4,1.2,2.68,1.32,3.84L101.738,128.247z"/>
	<path d="M40.629,203.667c0,0.521,0.02,1.18,0.06,1.98c0,0.801,0,1.36,0,1.68c0,2.28-0.12,3.561-0.36,3.84
		c-0.24,0.28-0.381,0.5-0.42,0.66c0.476,0.201,0.715,0.64,0.715,1.32c0,0.48,0.021,0.94,0.064,1.38c0,0.4,0,0.581,0,0.54
		c0,0.72-0.504,1.08-1.511,1.08h-0.666c-0.484,0-0.908,0-1.27,0l-0.424-0.788l-0.06-0.112c-0.122,0.6-0.767,0.9-1.935,0.9
		c-0.483,0-0.867-0.02-1.149-0.06c-0.484-0.2-0.726-0.54-0.726-1.02c0.04-1.16,0.06-2.379,0.06-3.66c0-0.399,0-0.999,0-1.8
		c-0.04-0.759-0.06-1.32-0.06-1.68v-0.24c0-0.64,0.24-1.2,0.72-1.68c-0.48-0.72-0.72-1.239-0.72-1.56v-8.4
		c0.04-0.519,0.28-0.939,0.72-1.26c-0.035-0.12-0.103-0.27-0.206-0.45c-0.104-0.18-0.188-0.309-0.257-0.39l-0.154-0.66
		c-0.069-1.68-0.104-2.859-0.104-3.54c0-0.48,0-1.18,0-2.1c0-0.92,0-1.6,0-2.04c0-0.159,0-0.48,0-0.96c0-0.439,0-0.8,0-1.08
		c0-0.56,0.24-1.28,0.72-2.16c-0.148-0.08-0.388-0.3-0.72-0.66c0-0.279,0-0.72,0-1.32c0-0.6,0-1.059,0-1.38
		c0-0.84,0.04-2.259,0.119-4.26c0.159-0.399,0.615-0.6,1.37-0.6c1.15,0,1.924,0.261,2.321,0.78c0.516-0.519,0.993-0.78,1.43-0.78
		c0.04,0,0.118,0,0.238,0c0.159,0,0.297,0,0.417,0c0.238,0,0.436,0,0.595,0c0.516,0,0.933,0.22,1.25,0.66v3.6l-0.72,0.84
		c0.392,0.28,0.632,0.66,0.72,1.14c0,1.601,0,3.921,0,6.96c0,2.92,0,5.08,0,6.48l-0.257,0.48c-0.258,0.16-0.473,0.28-0.643,0.36
		c0.385,0.201,0.685,0.561,0.9,1.08v7.56l-0.54,0.78L40.629,203.667z M54.812,200.427c0.344,2.561,0.517,4.3,0.517,5.22
		c0,2.04-0.66,3.5-1.98,4.38c0.2,0.28,0.3,0.54,0.3,0.78c0-0.12-0.16,0.52-0.48,1.92c-1.761,1.68-3.741,2.76-5.94,3.24
		c-0.12-0.08-0.42-0.24-0.9-0.48c-0.201,0.441-0.9,0.66-2.1,0.66c-0.561,0-1,0-1.32,0h0.24c-0.36-0.118-0.54-0.295-0.54-0.532
		v-0.177l0.068-2.303c0.634-0.236,0.952-0.433,0.952-0.591l-0.78-0.767c-0.161-0.866-0.24-1.457-0.24-1.772
		c0-0.433,0.02-0.768,0.061-1.004c0.323-0.236,0.566-0.354,0.729-0.354h0.485c0.891-0.08,1.64-0.36,2.248-0.84
		c0.971-1.28,1.458-2.68,1.458-4.2l1.02-0.66c-0.4-0.039-0.741-0.5-1.02-1.38c-0.36-1.239-0.78-2.18-1.26-2.82
		c-0.76-0.64-1.601-0.96-2.52-0.96c-0.36,0-0.621,0-0.78,0l-0.24-0.417v-2.381c0-0.396,0.2-0.654,0.6-0.773
		c-0.081-0.158-0.24-0.396-0.48-0.714c-0.081-0.873-0.12-1.488-0.12-1.845v-0.536c0.12-0.397,0.32-0.655,0.6-0.773h0.42
		c1.44,0,2.4-0.517,2.88-1.55c0.04-0.119,0.219-0.795,0.54-2.028c0.2-0.714,0.54-1.211,1.02-1.491l-0.18-0.298
		c-0.4-0.079-0.82-0.686-1.26-1.818c-0.441-1.133-1.121-1.878-2.04-2.236c-0.201,0-0.46,0-0.78,0c-0.8,0-1.2-0.339-1.2-1.02v-0.54
		c0-0.84,0.24-1.58,0.72-2.22c-0.6-0.6-0.9-1.359-0.9-2.28c0-0.36,0.02-0.64,0.06-0.84c0.36-0.56,0.84-0.84,1.44-0.84
		c0.24,0,0.42,0.021,0.54,0.06c2.6,0.28,4.28,0.54,5.04,0.78c1.119,0.321,1.68,0.82,1.68,1.5c0,0.24-0.06,0.521-0.18,0.84h0.42
		c0.52,0,0.92,0.021,1.2,0.06c1.239,2.121,1.86,4.44,1.86,6.96v0.36c-0.4,0.32-0.681,0.621-0.84,0.9
		c0.399,0.28,0.68,0.621,0.84,1.02c-0.12,3.4-1.06,5.781-2.82,7.14c-0.4,0.201-1,0.38-1.8,0.54c-0.44,0.12-0.681,0.3-0.72,0.54
		c0.039,0.16,0.2,0.28,0.48,0.36c1.239,0.28,2.16,0.64,2.76,1.08c0.72,0.561,1.34,1.48,1.86,2.76v0.18c0,0.561-0.261,1.02-0.78,1.38
		C54.079,199.807,54.467,200.067,54.812,200.427z"/>
	<path d="M68.588,216.327c-0.161,0.279-0.34,0.42-0.54,0.42c-1.36,0-2.601-0.302-3.72-0.905c-1.12-0.603-1.68-1.195-1.68-1.778
		c0-0.042,0.039-0.188,0.12-0.437h-0.18c-0.48,0-0.84-0.159-1.08-0.48c-1-1.28-1.72-2.859-2.16-4.74
		c-0.081-0.159-0.16-0.5-0.24-1.02l0.48-0.54c-0.6-0.44-0.96-1.14-1.08-2.1c-0.081-1.16-0.16-2.319-0.24-3.48v-2.28
		c0-0.799,0.26-1.459,0.78-1.98l-0.54-0.3c-0.16-2.84-0.24-5.199-0.24-7.08c0-3.68,0.36-5.78,1.08-6.3
		c-0.201-0.24-0.3-0.52-0.3-0.84c0-2.72,1.479-5.479,4.44-8.28c0.24-0.08,0.42-0.12,0.54-0.12c0.159,0,0.36,0.041,0.6,0.12v-0.444
		c0.84-0.703,1.879-1.056,3.12-1.056c0.48,0,0.72,0.38,0.72,1.14c0.08,0.48,0.12,0.82,0.12,1.02c0,0.64-0.141,1.24-0.42,1.8
		c-0.12,0.041-0.18,0.1-0.18,0.18c0.36,0.44,0.54,0.8,0.54,1.08c0,1.641-0.18,2.561-0.54,2.76c-0.76,0.64-1.36,2.46-1.8,5.46
		c-0.161,0.16-0.4,0.36-0.72,0.6c0.279,0.32,0.54,0.7,0.78,1.14l-0.24,5.82v4.02l0.18,1.74c-0.12,0.24-0.18,0.54-0.18,0.9
		c0,0.24,0.06,0.5,0.18,0.78c0,0.28,0,0.46,0,0.54c0,0.64-0.261,1.14-0.78,1.5c0.48,0.321,0.8,0.6,0.96,0.84
		c0.44,2.88,1.02,4.581,1.74,5.1c0.279,0.12,0.42,0.34,0.42,0.66v3.12l-0.48,0.66l-0.18,0.06c0.12,0.12,0.32,0.24,0.6,0.36
		C68.548,215.028,68.588,215.808,68.588,216.327z M80.888,188.307c-0.075,0.84-0.15,1.67-0.225,2.49
		c-0.075,0.82-0.3,1.391-0.675,1.71l0.54,0.36c0.24,2.92,0.36,5.24,0.36,6.96c0,3.88-0.4,6-1.2,6.36
		c0.159,0.201,0.279,0.78,0.36,1.74c-0.48,3-1.9,5.421-4.26,7.26c-0.28,0.12-0.54,0.18-0.78,0.18c-0.201,0-0.34-0.02-0.42-0.06v0.48
		c-1.401,0.639-2.361,0.96-2.88,0.96c-0.6,0-0.94-0.36-1.02-1.08c0-0.159,0-0.36,0-0.6c-0.041-0.24-0.06-0.399-0.06-0.48
		c0-0.12,0.02-0.279,0.06-0.48c0-0.24,0-0.399,0-0.48c0.039-0.04,0.319-0.26,0.84-0.66c-0.561,0-0.84-0.339-0.84-1.02v-1.92
		c0-0.399,0.12-0.72,0.36-0.96c0.879-0.68,1.56-2.54,2.04-5.58c0.159-0.159,0.42-0.36,0.78-0.6c-0.4-0.399-0.681-0.76-0.84-1.08
		l0.12-5.76v-2.58v-3.24c0-0.279,0-0.66,0-1.14c0-0.2,0-0.42,0-0.66c0-0.24,0-0.379,0-0.42c0-0.68,0.24-1.2,0.72-1.56
		c-0.549-0.159-0.903-0.6-1.06-1.32c-0.158-0.879-0.334-1.779-0.53-2.7c-0.118-0.799-0.53-1.5-1.237-2.1
		c-0.236,0-0.353-0.12-0.353-0.36v-3.36c0.279-0.24,0.48-0.48,0.6-0.72c-0.081-0.16-0.18-0.24-0.3-0.24h-0.12
		c-0.12-0.6-0.18-1.179-0.18-1.74v-0.6c0.12-0.32,0.3-0.52,0.54-0.6c2.08,0.201,3.86,0.92,5.34,2.16c0.08,0.16,0.12,0.32,0.12,0.48
		c0,0.081-0.041,0.24-0.12,0.48h0.18c0.44,0,0.86,0.16,1.26,0.48c0.919,1.48,1.56,3.12,1.92,4.92c0.08,0.4,0.12,0.741,0.12,1.02
		c-0.041,0.04-0.201,0.22-0.48,0.54c0.611,0.4,0.956,1.06,1.033,1.98C80.716,185.928,80.812,187.107,80.888,188.307z"/>
	<path d="M94.868,216.327c-0.161,0.279-0.34,0.42-0.54,0.42c-1.36,0-2.601-0.302-3.72-0.905c-1.12-0.603-1.68-1.195-1.68-1.778
		c0-0.042,0.039-0.188,0.12-0.437h-0.18c-0.48,0-0.84-0.159-1.08-0.48c-1-1.28-1.72-2.859-2.16-4.74
		c-0.081-0.159-0.16-0.5-0.24-1.02l0.48-0.54c-0.6-0.44-0.96-1.14-1.08-2.1c-0.081-1.16-0.16-2.319-0.24-3.48v-2.28
		c0-0.799,0.26-1.459,0.78-1.98l-0.54-0.3c-0.16-2.84-0.24-5.199-0.24-7.08c0-3.68,0.36-5.78,1.08-6.3
		c-0.201-0.24-0.3-0.52-0.3-0.84c0-2.72,1.479-5.479,4.44-8.28c0.24-0.08,0.42-0.12,0.54-0.12c0.159,0,0.36,0.041,0.6,0.12v-0.444
		c0.84-0.703,1.879-1.056,3.12-1.056c0.48,0,0.72,0.38,0.72,1.14c0.08,0.48,0.12,0.82,0.12,1.02c0,0.64-0.141,1.24-0.42,1.8
		c-0.12,0.041-0.18,0.1-0.18,0.18c0.36,0.44,0.54,0.8,0.54,1.08c0,1.641-0.18,2.561-0.54,2.76c-0.76,0.64-1.36,2.46-1.8,5.46
		c-0.161,0.16-0.4,0.36-0.72,0.6c0.279,0.32,0.54,0.7,0.78,1.14l-0.24,5.82v4.02l0.18,1.74c-0.12,0.24-0.18,0.54-0.18,0.9
		c0,0.24,0.06,0.5,0.18,0.78c0,0.28,0,0.46,0,0.54c0,0.64-0.261,1.14-0.78,1.5c0.48,0.321,0.8,0.6,0.96,0.84
		c0.44,2.88,1.02,4.581,1.74,5.1c0.279,0.12,0.42,0.34,0.42,0.66v3.12l-0.48,0.66l-0.18,0.06c0.12,0.12,0.32,0.24,0.6,0.36
		C94.827,215.028,94.868,215.808,94.868,216.327z M107.167,188.307c-0.075,0.84-0.15,1.67-0.225,2.49
		c-0.075,0.82-0.3,1.391-0.675,1.71l0.54,0.36c0.24,2.92,0.36,5.24,0.36,6.96c0,3.88-0.4,6-1.2,6.36
		c0.159,0.201,0.279,0.78,0.36,1.74c-0.48,3-1.9,5.421-4.26,7.26c-0.28,0.12-0.54,0.18-0.78,0.18c-0.201,0-0.34-0.02-0.42-0.06v0.48
		c-1.401,0.639-2.361,0.96-2.88,0.96c-0.6,0-0.94-0.36-1.02-1.08c0-0.159,0-0.36,0-0.6c-0.041-0.24-0.06-0.399-0.06-0.48
		c0-0.12,0.02-0.279,0.06-0.48c0-0.24,0-0.399,0-0.48c0.039-0.04,0.319-0.26,0.84-0.66c-0.561,0-0.84-0.339-0.84-1.02v-1.92
		c0-0.399,0.12-0.72,0.36-0.96c0.879-0.68,1.56-2.54,2.04-5.58c0.159-0.159,0.42-0.36,0.78-0.6c-0.4-0.399-0.681-0.76-0.84-1.08
		l0.12-5.76v-2.58v-3.24c0-0.279,0-0.66,0-1.14c0-0.2,0-0.42,0-0.66c0-0.24,0-0.379,0-0.42c0-0.68,0.24-1.2,0.72-1.56
		c-0.549-0.159-0.903-0.6-1.06-1.32c-0.158-0.879-0.334-1.779-0.53-2.7c-0.118-0.799-0.53-1.5-1.237-2.1
		c-0.236,0-0.353-0.12-0.353-0.36v-3.36c0.279-0.24,0.48-0.48,0.6-0.72c-0.081-0.16-0.18-0.24-0.3-0.24h-0.12
		c-0.12-0.6-0.18-1.179-0.18-1.74v-0.6c0.12-0.32,0.3-0.52,0.54-0.6c2.08,0.201,3.86,0.92,5.34,2.16c0.08,0.16,0.12,0.32,0.12,0.48
		c0,0.081-0.041,0.24-0.12,0.48h0.18c0.44,0,0.86,0.16,1.26,0.48c0.919,1.48,1.56,3.12,1.92,4.92c0.08,0.4,0.12,0.741,0.12,1.02
		c-0.041,0.04-0.201,0.22-0.48,0.54c0.611,0.4,0.956,1.06,1.033,1.98C106.995,185.928,107.091,187.107,107.167,188.307z"/>
	<path d="M113.469,180.207c0,0.24-0.098,0.44-0.291,0.6h-0.64c-0.93,0-1.492-0.16-1.686-0.48c-0.349,0.32-0.756,0.48-1.221,0.48
		h-0.291c-0.116,0-0.272,0-0.465,0c-0.621,0-0.93-0.42-0.93-1.26c0-0.639,0.18-1.399,0.54-2.28c-0.36-0.36-0.54-0.819-0.54-1.38
		c0-0.04,0-0.22,0-0.54c0-0.36,0-0.7,0-1.02v-0.66l0.24-0.42c0.159-0.04,0.379-0.06,0.66-0.06c0.64,0,1.239,0.22,1.8,0.66l0.54-0.66
		h0.24c0.2,0,0.429,0,0.69,0c0.26,0,0.41,0,0.45,0c0.439,0,0.759,0.22,0.96,0.66v1.68c0,0.561-0.16,1-0.48,1.32
		c0.32,0.4,0.48,0.9,0.48,1.5v0.6C113.488,179.388,113.469,179.808,113.469,180.207z M122.467,212.481
		c0.439,0.641,0.66,1.263,0.66,1.863c0,0.722-0.09,1.212-0.27,1.473c-0.18,0.261-0.61,0.39-1.29,0.39c-0.521,0-0.96-0.021-1.32-0.06
		c-0.4-0.2-0.7-0.439-0.9-0.72c-0.76,0.521-1.3,0.78-1.62,0.78h-0.84c-1.08,0-1.62-0.34-1.62-1.022v-8.291
		c0.129-0.881,0.409-1.663,0.84-2.343c-0.388-0.081-0.667-0.261-0.84-0.541v-10.274c0.049-0.28,0.268-0.481,0.66-0.601
		c-0.44-0.441-0.66-0.841-0.66-1.202c0-0.841,0-2.032,0-3.575c0-1.542,0-2.654,0-3.334c0-0.561-0.03-1.292-0.09-2.194
		c-0.06-0.901-0.09-1.532-0.09-1.892c0-2.363,0.399-3.625,1.2-3.785l-0.271-0.18c-0.182-0.12-0.408-0.34-0.68-0.661
		c-0.046-0.24-0.069-0.601-0.069-1.082c0-1.322,0.264-1.983,0.792-1.983c0.122,0,0.284-0.02,0.487-0.06c0.244,0,0.406,0,0.488,0
		c1.137,0,1.868,0.321,2.194,0.96c0.731-0.639,1.219-0.96,1.462-0.96c1.381,0,2.133,0.181,2.255,0.541c0,0.16,0.02,0.4,0.061,0.721
		c0,0.281,0,0.481,0,0.601c0,1.242-0.28,1.983-0.84,2.223c0.279,0.12,0.54,0.301,0.78,0.541c0.04,0.521,0.06,1.282,0.06,2.283
		c0,1.843-0.101,3.906-0.3,6.188c-0.2,0.482-0.42,0.822-0.66,1.022c0.383,0.081,0.703,0.321,0.96,0.721v10.034
		c-0.086,0.081-0.216,0.211-0.388,0.391s-0.322,0.33-0.452,0.45c0.56,0.48,0.84,1.222,0.84,2.224c0,0.12,0,0.361,0,0.721
		c0,0.36,0,0.641,0,0.841v8.712C123.007,211.802,122.827,212.162,122.467,212.481z M130.327,173.671c0,0.041,0,0.162,0,0.363
		c0,0.202,0,0.404,0,0.604c0,0.161,0,0.363,0,0.604c0,0.242,0,0.403,0,0.484c0,0.687-0.2,1.21-0.6,1.573
		c0.4,0.887,0.6,1.572,0.6,2.056c0,0.967-0.36,1.451-1.08,1.451c-0.04,0-0.12,0-0.24,0s-0.21,0-0.27,0s-0.13,0-0.21,0
		c-0.081,0-0.141,0-0.18,0c-0.201,0-0.46-0.16-0.78-0.48c-0.12,0.32-0.6,0.48-1.44,0.48c-0.84,0-1.26-0.219-1.26-0.655
		c0-0.238,0-0.575,0-1.012c-0.04-0.396-0.06-0.674-0.06-0.833c0-0.555,0.2-1.052,0.6-1.489c-0.28-0.198-0.46-1.189-0.54-2.977
		c0.24-0.436,0.56-0.654,0.96-0.654c0.08,0,0.26,0,0.54,0c0.279,0,0.5,0,0.66,0h0.24l0.48,0.66c0.56-0.44,1.12-0.66,1.68-0.66
		c0.279,0,0.5,0.021,0.661,0.061L130.327,173.671z"/>
	<path d="M36.218,265.527c-0.041,0.201-0.201,0.501-0.48,0.9c0,0.041,0.06,0.081,0.18,0.12c0.24,0.441,0.36,0.921,0.36,1.44
		c0,0.161-0.021,0.371-0.06,0.63c-0.041,0.26-0.06,0.43-0.06,0.51c0,0.081,0.02,0.201,0.06,0.36c0,0.201,0,0.36,0,0.48
		c0,0.12-0.101,0.28-0.3,0.48c-0.32,0.08-0.54,0.12-0.66,0.12c-1.24,0-2.061-0.4-2.46-1.2l-0.18-0.36
		c-0.12,0.041-0.321,0.06-0.6,0.06c-0.24,0-0.42-0.02-0.54-0.06c-2.8-2.479-4.2-5.16-4.2-8.04c0-0.24,0.099-0.519,0.3-0.84
		c-0.681-0.439-1.02-2.52-1.02-6.24c0-1,0.06-3.36,0.18-7.08c0.08-0.08,0.279-0.2,0.6-0.36c-0.521-0.519-0.78-1.16-0.78-1.92v-2.28
		c0-1.92,0.04-3.12,0.12-3.6c0.12-0.92,0.5-1.56,1.14-1.92c-0.12-0.16-0.261-0.339-0.42-0.54c0-0.399,0.06-0.74,0.18-1.02
		c0.279-1.68,0.92-3.26,1.92-4.74c1.52-1.119,2.34-1.7,2.46-1.74c-0.12,0.16-0.52,0.54-1.2,1.14c-0.041-0.08-0.06-0.22-0.06-0.42
		c0-0.199,0.02-0.36,0.06-0.48c1.959-1.399,3.399-2.1,4.32-2.1c0.72,0,1.1,0.28,1.14,0.84c0,0.48-0.041,1.12-0.12,1.92l-0.6,0.6
		c0.2,0.12,0.44,0.34,0.72,0.66l-0.06,3.42c-0.321,0.48-0.76,1.66-1.32,3.54c-0.161,0.44-0.24,0.96-0.24,1.56v0.48
		c-0.36,0.28-0.76,0.46-1.2,0.54c0.72,0.28,1.08,1.12,1.08,2.52c0,0.12-0.06,0.581-0.18,1.38v2.4v0.84l0.18,7.98
		c-0.425,0.641-0.765,1.101-1.02,1.38c0.399,0.24,0.74,0.44,1.02,0.6c0.44,2.92,0.939,4.62,1.5,5.1c0.16,0.6,0.24,1.341,0.24,2.22
		V265.527z M46.598,236.367c0.72,0.32,1.08,1.641,1.08,3.96c0,0.88-0.7,1.32-2.1,1.32c-0.48,0-0.94-0.159-1.38-0.48
		c-0.081,0.041-0.22,0.16-0.42,0.36h-3.24c-0.4-0.039-0.6-0.511-0.6-1.417c0-0.118,0-0.315,0-0.59c0-0.276,0-0.492,0-0.65
		c0.262-0.393,0.502-0.728,0.72-1.003h-0.06c-0.321,0-0.58-0.26-0.78-0.78c-0.041-0.12-0.28-0.879-0.72-2.28
		c-0.561-0.64-0.84-1.28-0.84-1.92c0-0.48,0.02-1.02,0.06-1.62c0.159-0.32,0.42-0.54,0.78-0.66c-0.561-0.24-0.84-0.78-0.84-1.62
		v-0.6c0-1.16,0.279-1.74,0.84-1.74c0.24,0,0.5,0.06,0.78,0.18c0.96,0,1.86,0.38,2.7,1.14l0.12,0.36c0.2-0.12,0.339-0.18,0.42-0.18
		c0.56,0,1.12,0.46,1.68,1.38c0.08,0.201,0.279,0.42,0.6,0.66c0.96,1.6,1.56,3.321,1.8,5.16
		C47.158,235.667,46.958,236.007,46.598,236.367z M47.918,255.387v1.08c0,1.881-0.26,3.54-0.78,4.98l-0.54,0.54
		c0.399,0.12,0.6,0.36,0.6,0.72c0,0.44-0.16,1.14-0.48,2.1c-1.44,3.081-2.721,4.62-3.84,4.62c-0.24,0-0.48-0.06-0.72-0.18
		c-0.12,0.6-0.43,1-0.93,1.2c-0.5,0.2-1.07,0.3-1.71,0.3c-0.561,0-0.96-0.12-1.2-0.36l0.06-2.28l0.96-1.08
		c-0.72-0.56-1.08-1.14-1.08-1.74c0-0.08,0.02-0.22,0.06-0.42c0-0.16,0-0.28,0-0.36v-0.66c0-0.16,0.099-0.339,0.3-0.54
		c0.48-0.32,0.87-1,1.17-2.04c0.3-1.04,0.65-1.779,1.05-2.22c-0.176-0.08-0.397-0.32-0.66-0.72v-1.08c0-1.52,0.262-2.28,0.787-2.28
		h0.06c0.282-0.039,0.685-0.06,1.209-0.06c0.564,0,0.968,0.021,1.209,0.06l0.787,0.42l0.363,0.36c0.161-0.44,0.503-0.72,1.028-0.84
		c0.121,0,0.282,0,0.483,0c0.202,0.041,0.343,0.06,0.424,0.06c0.12,0,0.281-0.02,0.484-0.06c0.242,0,0.403,0,0.484,0
		C47.696,254.907,47.837,255.067,47.918,255.387z"/>
	<path d="M62.858,259.647v0.18c0,0.081-0.041,0.201-0.12,0.36c-0.28,0.201-0.561,0.3-0.84,0.3h-0.18c-0.52,0-1.18-0.02-1.98-0.06
		c-0.801,0-1.341,0-1.62,0l-0.36,0.36c-0.24,1.48-0.54,2.84-0.9,4.08c-0.24,0.4-0.54,0.68-0.9,0.84c0.08,0.081,0.189,0.21,0.33,0.39
		c0.14,0.18,0.23,0.33,0.27,0.45c-0.2,2.2-0.48,3.351-0.84,3.45c-0.36,0.1-0.92,0.15-1.68,0.15h-0.78
		c-0.28-0.159-0.561-0.399-0.84-0.72l-0.42,0.42l-0.54,0.3h-0.78c-0.48,0-1.161-0.04-2.04-0.12c-0.16-0.24-0.24-0.459-0.24-0.66
		v-0.12c0.639-2.439,1.16-4.88,1.56-7.32c0.08-0.48,0.319-0.859,0.72-1.14c0-0.04,0.02-0.12,0.06-0.24c0-0.08,0-0.14,0-0.18
		c0-0.16-0.04-0.36-0.12-0.6c-0.04-0.04-0.06-0.14-0.06-0.3c0-0.24,0.22-1.26,0.66-3.06c0.52-2.12,0.9-4.179,1.14-6.18
		c0.159-0.36,0.439-0.74,0.84-1.14c0-0.08-0.081-0.339-0.24-0.78c0.96-7.24,1.819-10.86,2.58-10.86h0.06
		c-0.04-0.12-0.11-0.279-0.21-0.48c-0.1-0.2-0.17-0.339-0.21-0.42c0.279-1.52,0.74-3.759,1.38-6.72c0-0.64,0.14-0.96,0.42-0.96h0.18
		c0.16,0.16,0.26,0.5,0.3,1.02c0.12,1.36,0.41,2.83,0.87,4.41c0.459,1.581,0.69,2.53,0.69,2.85c0,0.561-0.201,1.12-0.6,1.68
		c0.639,0.4,0.96,0.7,0.96,0.9v0.12c0,0.88,0.169,2,0.51,3.36c0.339,1.36,0.51,2.28,0.51,2.76c0,0.081-0.22,1.14-0.66,3.18
		c-0.16,0.28-0.4,0.54-0.72,0.78l0.3,0.42c0.12,0.16,0.18,0.4,0.18,0.72c0,0.16-0.12,0.96-0.36,2.4c0.12,0.12,0.26,0.18,0.42,0.18
		h0.18c0.08,0,0.18,0,0.3,0c0.12,0.041,0.2,0.06,0.24,0.06c0.08,0,0.159-0.02,0.24-0.06c0.12,0,0.199,0,0.24,0
		c0.759,0.081,1.22,1.061,1.38,2.94c-0.16,0.16-0.32,0.4-0.48,0.72l0.66,0.6C62.558,258.387,62.738,258.967,62.858,259.647z
		 M74.708,266.997c0.14,0.7,0.21,1.07,0.21,1.11c0,0.6-0.261,1.221-0.78,1.86c-0.48,0.12-0.96,0.18-1.44,0.18
		c-0.36,0-0.64-0.02-0.84-0.06c-0.321-0.159-0.581-0.339-0.78-0.54c-0.32,0.4-0.621,0.6-0.9,0.6c-0.12,0-0.43-0.02-0.93-0.059
		c-0.501-0.04-0.951-0.06-1.35-0.06c-0.161-0.159-0.381-0.338-0.66-0.537l-0.18-0.716l-1.98-9.907c0-0.039,0-0.098,0-0.179
		c-0.04-0.079-0.06-0.139-0.06-0.179c0-0.477,0.219-0.895,0.66-1.252c-0.682-0.119-1.065-0.378-1.149-0.776l-1.57-8.77l0.26-1.201
		c-0.48-0.24-1.12-2.922-1.92-8.047v-0.12c0-0.12,0.04-0.26,0.12-0.42c0.08-0.16,0.12-0.26,0.12-0.301c0-0.2-0.17-0.36-0.51-0.48
		l-0.131-0.658c-0.244-1.439-0.792-4.178-1.644-8.215c-0.037-0.08-0.055-0.18-0.055-0.3c0-0.44,0.279-0.661,0.84-0.661
		c0.04,0,0.28,0,0.72,0c0.48,0.04,0.939,0.06,1.38,0.06c0.44,0,0.759,0.2,0.96,0.6c0.16-0.27,0.339-0.448,0.54-0.532
		c0.2-0.084,0.52-0.127,0.96-0.127c0.8,0,1.5,0.208,2.1,0.623c0.16,0.605,0.3,1.078,0.42,1.417c0.279,1.32,0.8,3.92,1.56,7.8
		c-0.12,0.521-0.3,0.92-0.54,1.2c0.12,0.28,0.261,0.44,0.421,0.48c0.562,1.041,0.943,2.02,1.144,2.939
		c1.083,5.52,1.625,8.5,1.625,8.939c0,0.201-0.021,0.341-0.062,0.421l-0.368,1.082c0.553,0.201,0.889,0.561,1.008,1.082
		c0.643,3.319,1.287,6.539,1.931,9.657l-0.299,0.78c0.36,0.201,0.609,0.621,0.75,1.26C74.428,265.627,74.568,266.297,74.708,266.997
		z"/>
	<path d="M84.338,255.947c-0.04,1.404-0.06,3.992-0.06,7.761c-0.201,0.362-0.42,0.643-0.66,0.843c0.279,0.2,0.5,0.441,0.66,0.722
		c0.039,0.521,0.06,1.283,0.06,2.287c0,1.644-0.13,2.517-0.39,2.617c-0.261,0.1-0.591,0.15-0.99,0.15c-0.52,0-0.94-0.022-1.26-0.068
		c-0.4-0.36-0.76-0.697-1.08-1.012c-0.24,0.72-1.08,1.08-2.52,1.08c-0.88,0-1.32-0.421-1.32-1.264v-5.294
		c0.319-0.32,0.54-0.582,0.66-0.783l-0.48-1.143c-0.081-2.648-0.12-4.713-0.12-6.198v-2.346c0.16-0.12,0.399-0.26,0.72-0.421
		c-0.48-0.842-0.72-1.685-0.72-2.527c0-0.521,0.03-0.913,0.09-1.174c0.06-0.26,0.09-0.631,0.09-1.113
		c0-0.401-0.021-0.902-0.06-1.503c-0.04-0.602-0.06-1.003-0.06-1.204c0-1.443,0.22-2.287,0.66-2.527c-0.561-0.4-0.84-2.867-0.84-7.4
		c0-1.724,0.2-2.747,0.6-3.069c-0.4-0.32-0.6-1.303-0.6-2.947c0-1.204,0.099-1.906,0.3-2.106c0.32-0.08,0.56-0.12,0.72-0.12
		c0.72,0,1.239,0.542,1.56,1.625c0.159,0.562,0.42,2.206,0.78,4.933c0.08,0.242,0.12,0.543,0.12,0.903
		c0,0.482-0.081,0.883-0.24,1.204c1.32,0.922,1.98,3.309,1.98,7.16c0,1.003-0.04,1.785-0.12,2.346
		c0.279,0.041,0.519,0.241,0.72,0.602L84.338,255.947z M99.398,251.187c-0.12,1.6-0.82,5.98-2.1,13.14
		c-0.281,1.521-0.54,3.04-0.78,4.56c-0.24,0.84-0.7,1.26-1.38,1.26c-0.16,0-0.411-0.03-0.75-0.09c-0.34-0.06-0.591-0.09-0.75-0.09
		c-0.561,0-0.84-0.2-0.84-0.6c-0.321,0.2-0.561,0.4-0.72,0.6c-0.64,0.12-1.2,0.18-1.68,0.18c-0.88,0-1.42-0.48-1.62-1.44
		c-0.28-1.719-1.041-6.08-2.28-13.08c0.32-0.24,0.48-0.48,0.48-0.72c0-0.159-0.261-0.579-0.78-1.26l-1.44-7.2
		c0.039-0.759,0.3-1.459,0.78-2.1c-0.44-0.24-0.78-0.56-1.02-0.96c-1.08-3.8-1.62-6.36-1.62-7.68c0-0.279,0.08-0.52,0.24-0.72
		c-0.4,0-0.78-0.63-1.14-1.89c-0.36-1.26-0.54-2.93-0.54-5.01c0-0.6,0.279-0.9,0.84-0.9c0.72,0,1.64,0.321,2.76,0.96
		c0.68-0.639,1.5-0.96,2.46-0.96h0.54c0.24,0.121,0.48,0.943,0.72,2.467c0.439,2.97,0.66,4.235,0.66,3.793
		c0,0.441-0.141,0.943-0.42,1.504c0.44,0.362,0.74,0.923,0.9,1.686c0.92,4.093,1.38,6.562,1.38,7.404
		c0,0.883-0.261,1.445-0.78,1.686c0.92,0.482,1.38,1.585,1.38,3.31c0,0.924,0.06,1.786,0.18,2.588l0.18,12.28
		c0.146,0.201,0.33,0.362,0.55,0.482c0.513-0.16,0.77-1.26,0.77-3.3c0-0.759,0-1.62,0-2.58s0-1.539,0-1.74
		c0-4.08,0.18-7.4,0.54-9.96c0.32-2.28,0.68-3.42,1.08-3.42c-0.161-0.32-0.24-0.7-0.24-1.14c0-0.44,0.1-1.06,0.3-1.86
		c0.279-1.2,0.45-1.99,0.51-2.37c0.06-0.38,0.129-0.91,0.21-1.59c0-0.439,0.12-0.9,0.36-1.38l0.42-0.42
		c-0.12-0.32-0.18-0.639-0.18-0.96c0-0.36,0.11-1.01,0.33-1.95c0.219-0.939,0.33-1.729,0.33-2.37v-0.24
		c0-0.759,0.279-1.34,0.84-1.74h0.12c0.96,0,1.44,0.621,1.44,1.86c0,0.64-0.041,1.521-0.12,2.64c-0.081,1.12-0.12,1.92-0.12,2.4
		c0,0.36,0,0.84,0,1.44s0,1,0,1.2c0,0.96-0.28,1.84-0.84,2.64c0.32,0.201,0.54,0.581,0.66,1.14l0.18,1.98l-0.18,0.12
		c0.039,0.84,0.08,1.82,0.12,2.94c0.04,0.92,0.06,1.48,0.06,1.68c0,1.281-0.28,2.301-0.84,3.06
		C98.958,250.587,99.238,250.827,99.398,251.187z M108.158,236.367c0.639,0.2,0.96,0.8,0.96,1.8c0,0.28-0.06,1.09-0.18,2.43
		c-0.12,1.34-0.18,2.53-0.18,3.57c0,0.84,0,1.48,0,1.92l-0.42,0.78c0.52,0.4,0.78,1.54,0.78,3.42c0,1.56-0.16,3.4-0.48,5.52
		c-0.321,0.16-0.48,0.44-0.48,0.84v0.18c0.399,0.72,0.6,1.701,0.6,2.94c0,0.081,0,0.32,0,0.72c0,0.4,0,0.76,0,1.08
		c0,0.641,0,1.14,0,1.5v6.3c0,0.64-0.217,0.96-0.65,0.96c-0.079,0-0.207-0.03-0.384-0.09s-0.344-0.09-0.501-0.09
		c-0.04,0-0.138,0-0.295,0c-0.118,0-0.217,0-0.295,0c-0.354,0-0.788-0.219-1.299-0.66c-0.079,0.044-0.188,0.121-0.325,0.231
		c-0.138,0.11-0.246,0.209-0.325,0.297c-0.708,0.088-1.161,0.132-1.358,0.132c-1.417,0-2.126-0.801-2.126-2.404
		c0-0.159,0.03-0.72,0.09-1.682c0.06-0.961,0.11-1.883,0.15-2.764l-0.24-0.12l0.067-5.708c0-0.801,0.337-1.402,1.013-1.803
		c-0.405-0.24-0.675-0.54-0.81-0.901c-0.18-1.122-0.27-2.363-0.27-3.725v-1.202c0-1.361,0-2.683,0-3.966c0-1.281,0-1.863,0-1.743
		c0-0.48,0.099-0.92,0.3-1.322c0.2-0.4,0.3-0.621,0.3-0.661v-0.12c-0.4-2.042-0.6-4.045-0.6-6.009c0-1.361,0.2-2.203,0.6-2.523
		c-0.4-1.682-0.6-3.004-0.6-3.966c0-0.84,0.079-1.4,0.238-1.682c0.238-0.441,0.734-0.661,1.488-0.661c0.159,0,0.674,0.04,1.548,0.12
		l0.714,0.54c0.675-0.44,1.349-0.66,2.024-0.66c0.357,0,0.714,0.06,1.071,0.18c0.238,0.2,0.396,0.36,0.477,0.48c0,1.6,0,2.78,0,3.54
		c0,1.24-0.034,2.42-0.101,3.54C108.624,235.407,108.458,235.887,108.158,236.367z"/>
	<path d="M122.018,264.687c0-0.04,0-0.08,0-0.12v0.059c0,1.145,0,1.993,0,2.545v1.775c0,0.632-0.201,1.032-0.604,1.2
		c-0.202,0-0.484,0-0.847,0c-0.282,0-0.584,0-0.906,0c-0.323,0-0.524,0-0.605,0c-0.686,0-1.129-0.26-1.33-0.78
		c-0.283,0.52-0.747,0.78-1.392,0.78h-1.632c-0.283,0-0.424-0.22-0.424-0.662v-0.12c0-0.201,0-0.481,0-0.843c0-0.36,0-0.621,0-0.782
		c0-0.722,0.042-1.544,0.128-2.467c0.043-0.44,0.3-0.721,0.771-0.842c-0.086-0.201-0.236-0.421-0.45-0.662
		c-0.3-1.403-0.45-2.947-0.45-4.633v-1.384c0-0.12,0-0.661,0-1.625c0-0.962,0-1.845,0-2.647v-0.842c0-2.286,0.3-3.57,0.9-3.851
		c-0.369-0.16-0.669-0.441-0.9-0.842v-11.974c0-0.44,0.26-0.842,0.78-1.203l-0.78-0.783v-6.257c0.202-0.361,0.625-0.542,1.27-0.542
		h0.847c0.887,0,1.492,0.28,1.814,0.84c0.281-0.344,0.665-0.581,1.148-0.71c0.726-0.086,1.169-0.129,1.331-0.129
		c0.685,0,1.109,0.201,1.27,0.601c0.04,0.561,0.06,1.482,0.06,2.765l-0.72,0.721c0.48,0.481,0.72,1.223,0.72,2.224
		c0,3.967-0.019,8.734-0.055,14.303l-0.166,0.601c-0.222,0.241-0.388,0.542-0.499,0.902c0.439,0.32,0.68,0.701,0.72,1.142v10.517
		c0,0.361-0.22,0.881-0.66,1.562c0.439,0.521,0.66,1.162,0.66,1.923V264.687z M135.519,241.827c-0.473,5.121-1.337,7.68-2.595,7.68
		c-0.196,0-0.451-0.06-0.766-0.18c0.2,0.72,0.3,1.101,0.3,1.14c0,0.641-0.561,1.221-1.68,1.74c-1.24,0.6-2.841,0.92-4.8,0.96
		c-0.12,0.041-0.28,0.06-0.48,0.06c-0.6,0-1.08-0.279-1.44-0.84c0.04-0.56,0.08-1.38,0.12-2.46c0.32-0.2,0.62-0.439,0.9-0.72
		c-0.52-0.24-0.84-0.64-0.96-1.2l-0.06-1.32c0-0.44,0.18-0.74,0.54-0.9l1.56-0.48c0.8-0.96,1.34-2.14,1.62-3.54
		c0.2-1.04,0.459-1.58,0.78-1.62c-0.412-0.159-0.679-0.5-0.801-1.02c0-1.68-0.719-3.08-2.157-4.2h-0.247
		c-0.864,0-1.295-0.42-1.295-1.26v-1.32c0.045-0.52,0.385-0.9,1.02-1.14c-0.213-0.2-0.531-0.459-0.956-0.78l-0.064-2.4
		c0.357-0.56,0.814-0.84,1.371-0.84c0.238,0,0.417,0,0.536,0h0.536c2.145,0,4.011,0.72,5.6,2.16c0.238,0.28,0.357,0.561,0.357,0.84
		c0,0.201,0,0.4,0,0.6c0.078,0,0.195,0,0.353,0c1.726,0,2.588,2.661,2.588,7.98v0.84c-0.16,0.321-0.42,0.66-0.78,1.02h0.112
		C134.956,240.627,135.218,241.027,135.519,241.827z"/>
</g>
</svg>
